<?xml version="1.0" encoding="UTF-8"?><svg width="132" height="24" id="Layer_1" xmlns="http://www.w3.org/2000/svg" viewBox="0 0 500 140.56"><defs><style>.cls-1{fill:#fff;}</style></defs><path class="cls-1" d="M56.04,6.34c-6.23-3.53-13.84-5.3-22.82-5.3H5.23C1.74,1.05,0,2.79,0,6.28V87.36c0,3.49,1.74,5.23,5.23,5.23h27.99c6.71,0,12.66-1,17.85-3.01,5.19-2.01,9.57-4.95,13.14-8.83,3.57-3.88,6.28-8.65,8.11-14.32,1.83-5.67,2.75-12.21,2.75-19.62,0-9.85-1.62-18.18-4.84-24.98-3.23-6.8-7.96-11.97-14.19-15.5Zm-3.99,56.17c-1.57,4.27-3.92,7.5-7.06,9.68-3.14,2.18-7.06,3.27-11.77,3.27h-12.95V18.18h12.95c4.71,0,8.63,1.09,11.77,3.27,3.14,2.18,5.49,5.41,7.06,9.68,1.57,4.27,2.36,9.5,2.36,15.69s-.79,11.42-2.36,15.69ZM147.4,4.97V88.67c0,2.88-2.62,4.31-7.85,4.31h-4.58c-5.23,0-7.85-1.44-7.85-4.31V4.97c0-2.88,2.62-4.31,7.85-4.31h4.58c5.23,0,7.85,1.44,7.85,4.31Zm116.92,2.62v4.05c0,4.36-1.31,6.54-3.92,6.54h-20.79V88.67c0,2.79-2.62,4.19-7.85,4.19h-4.58c-5.23,0-7.85-1.4-7.85-4.19V18.18h-20.79c-2.62,0-3.92-2.18-3.92-6.54V7.58c0-4.36,1.31-6.54,3.92-6.54h61.86c2.62,0,3.92,2.18,3.92,6.54Zm109.6,0v4.05c0,4.36-1.31,6.54-3.92,6.54h-20.79V88.67c0,2.79-2.62,4.19-7.85,4.19h-4.58c-5.23,0-7.85-1.4-7.85-4.19V18.18h-20.79c-2.62,0-3.92-2.18-3.92-6.54V7.58c0-4.36,1.31-6.54,3.92-6.54h61.86c2.62,0,3.92,2.18,3.92,6.54Zm126.08,39.23c0,15.08-3.64,26.66-10.92,34.72-3.9,4.32-8.94,7.49-14.39,9.47-4.38,1.59-9.59,2.02-11.37,7.17-1.13,3.26-.99,6.87,.35,10.04,1.64,3.89,5.51,6.78,7.78,10.32,1.04,1.61,1.76,3.42,2.08,5.32,.12,.7,.18,1.42,.19,2.13,.04,3.28-1.07,6.51-3.12,9.07-5.88,7.35-19.31,7.32-25.17,0-3.68-4.6-4.05-11.05-1.13-16.14,1.86-3.24,4.82-5.64,6.9-8.72,2.38-3.51,2.9-8.01,1.51-12.02-1.78-5.15-7-5.58-11.37-7.17-5.45-1.98-10.49-5.15-14.39-9.47-7.28-8.06-10.92-19.64-10.92-34.72s3.64-26.66,10.92-34.72c7.28-8.06,17.63-12.1,31.06-12.1s23.78,4.03,31.06,12.1c7.28,8.07,10.92,19.64,10.92,34.72Zm-63.3,0c0,9.59,1.81,16.94,5.43,22.04,3.62,5.1,8.91,7.65,15.89,7.65s12.25-2.55,15.82-7.65c3.57-5.1,5.36-12.44,5.36-22.04s-1.79-16.91-5.36-21.97c-3.58-5.05-8.85-7.58-15.82-7.58s-12.27,2.53-15.89,7.58c-3.62,5.06-5.43,12.38-5.43,21.97Z"/></svg>