<?xml version="1.0" encoding="utf-8"?>
<svg xmlns="http://www.w3.org/2000/svg" xmlns:xlink="http://www.w3.org/1999/xlink" style="margin: auto; background: rgb(241, 242, 243); display: block; z-index: 1; position: relative; shape-rendering: auto;" width="571" height="1430" preserveAspectRatio="xMidYMid" viewBox="0 0 571 1430">
<g transform="translate(285.5,715) scale(1,1) translate(-285.5,-715)"><defs>
<linearGradient id="lg-0.17233231359503431" x1="0" x2="0" y1="0" y2="1">
  <stop stop-color="#0a0a0a" offset="0.55"></stop>
  <stop stop-color="#00030f" offset="0.775"></stop>
  <stop stop-color="#00030f" offset="1"></stop>
</linearGradient>
<linearGradient id="fg-lg-0.17233231359503431" x1="0" x2="0" y1="0" y2="1">
  <stop stop-color="#0a0a0a" stop-opacity="1" offset="0.55"></stop>
  <stop stop-color="#00030f" stop-opacity="0.66" offset="0.775"></stop>
  <stop stop-color="#00030f" stop-opacity="0" offset="1"></stop>
</linearGradient>
<style type="text/css">
  path { fill: none; stroke: #ffffff; stroke-width: 2px }
</style>
</defs>
<rect x="0" y="0" width="571" height="1430" fill="url(#lg-0.17233231359503431)"></rect><path d="M0 786.5000000000001 L-3997 1430"></path><path d="M3.300578034682081 786.5000000000001 L-3947.491329479769 1430"></path><path d="M6.601156069364162 786.5000000000001 L-3897.9826589595377 1430"></path><path d="M9.901734104046243 786.5000000000001 L-3848.4739884393066 1430"></path><path d="M13.202312138728324 786.5000000000001 L-3798.965317919075 1430"></path><path d="M16.502890173410403 786.5000000000001 L-3749.456647398844 1430"></path><path d="M19.803468208092486 786.5000000000001 L-3699.9479768786127 1430"></path><path d="M23.104046242774565 786.5000000000001 L-3650.4393063583816 1430"></path><path d="M26.404624277456648 786.5000000000001 L-3600.9306358381505 1430"></path><path d="M29.705202312138727 786.5000000000001 L-3551.421965317919 1430"></path><path d="M33.005780346820806 786.5000000000001 L-3501.9132947976877 1430"></path><path d="M36.30635838150289 786.5000000000001 L-3452.4046242774566 1430"></path><path d="M39.60693641618497 786.5000000000001 L-3402.8959537572255 1430"></path><path d="M42.907514450867055 786.5000000000001 L-3353.3872832369943 1430"></path><path d="M46.20809248554913 786.5000000000001 L-3303.878612716763 1430"></path><path d="M49.50867052023121 786.5000000000001 L-3254.369942196532 1430"></path><path d="M52.809248554913296 786.5000000000001 L-3204.8612716763005 1430"></path><path d="M56.10982658959538 786.5000000000001 L-3155.3526011560693 1430"></path><path d="M59.410404624277454 786.5000000000001 L-3105.843930635838 1430"></path><path d="M62.71098265895954 786.5000000000001 L-3056.335260115607 1430"></path><path d="M66.01156069364161 786.5000000000001 L-3006.8265895953755 1430"></path><path d="M69.3121387283237 786.5000000000001 L-2957.3179190751443 1430"></path><path d="M72.61271676300578 786.5000000000001 L-2907.809248554913 1430"></path><path d="M75.91329479768787 786.5000000000001 L-2858.300578034682 1430"></path><path d="M79.21387283236994 786.5000000000001 L-2808.791907514451 1430"></path><path d="M82.51445086705202 786.5000000000001 L-2759.28323699422 1430"></path><path d="M85.81502890173411 786.5000000000001 L-2709.7745664739887 1430"></path><path d="M89.11560693641619 786.5000000000001 L-2660.2658959537575 1430"></path><path d="M92.41618497109826 786.5000000000001 L-2610.757225433526 1430"></path><path d="M95.71676300578035 786.5000000000001 L-2561.248554913295 1430"></path><path d="M99.01734104046243 786.5000000000001 L-2511.7398843930637 1430"></path><path d="M102.3179190751445 786.5000000000001 L-2462.231213872832 1430"></path><path d="M105.61849710982659 786.5000000000001 L-2412.722543352601 1430"></path><path d="M108.91907514450867 786.5000000000001 L-2363.21387283237 1430"></path><path d="M112.21965317919076 786.5000000000001 L-2313.7052023121387 1430"></path><path d="M115.52023121387283 786.5000000000001 L-2264.1965317919075 1430"></path><path d="M118.82080924855491 786.5000000000001 L-2214.6878612716764 1430"></path><path d="M122.121387283237 786.5000000000001 L-2165.1791907514453 1430"></path><path d="M125.42196531791907 786.5000000000001 L-2115.670520231214 1430"></path><path d="M128.72254335260115 786.5000000000001 L-2066.1618497109826 1430"></path><path d="M132.02312138728323 786.5000000000001 L-2016.6531791907514 1430"></path><path d="M135.32369942196533 786.5000000000001 L-1967.1445086705203 1430"></path><path d="M138.6242774566474 786.5000000000001 L-1917.6358381502891 1430"></path><path d="M141.92485549132948 786.5000000000001 L-1868.127167630058 1430"></path><path d="M145.22543352601156 786.5000000000001 L-1818.6184971098264 1430"></path><path d="M148.52601156069363 786.5000000000001 L-1769.1098265895953 1430"></path><path d="M151.82658959537574 786.5000000000001 L-1719.6011560693642 1430"></path><path d="M155.1271676300578 786.5000000000001 L-1670.092485549133 1430"></path><path d="M158.4277456647399 786.5000000000001 L-1620.5838150289019 1430"></path><path d="M161.72832369942196 786.5000000000001 L-1571.0751445086707 1430"></path><path d="M165.02890173410404 786.5000000000001 L-1521.5664739884392 1430"></path><path d="M168.32947976878611 786.5000000000001 L-1472.057803468208 1430"></path><path d="M171.63005780346822 786.5000000000001 L-1422.549132947977 1430"></path><path d="M174.9306358381503 786.5000000000001 L-1373.0404624277458 1430"></path><path d="M178.23121387283237 786.5000000000001 L-1323.5317919075146 1430"></path><path d="M181.53179190751445 786.5000000000001 L-1274.023121387283 1430"></path><path d="M184.83236994219652 786.5000000000001 L-1224.514450867052 1430"></path><path d="M188.13294797687863 786.5000000000001 L-1175.0057803468208 1430"></path><path d="M191.4335260115607 786.5000000000001 L-1125.4971098265896 1430"></path><path d="M194.73410404624278 786.5000000000001 L-1075.9884393063585 1430"></path><path d="M198.03468208092485 786.5000000000001 L-1026.4797687861274 1430"></path><path d="M201.33526011560693 786.5000000000001 L-976.9710982658958 1430"></path><path d="M204.635838150289 786.5000000000001 L-927.4624277456646 1430"></path><path d="M207.9364161849711 786.5000000000001 L-877.9537572254335 1430"></path><path d="M211.23699421965318 786.5000000000001 L-828.4450867052024 1430"></path><path d="M214.53757225433526 786.5000000000001 L-778.9364161849712 1430"></path><path d="M217.83815028901734 786.5000000000001 L-729.4277456647401 1430"></path><path d="M221.1387283236994 786.5000000000001 L-679.9190751445085 1430"></path><path d="M224.43930635838151 786.5000000000001 L-630.4104046242774 1430"></path><path d="M227.7398843930636 786.5000000000001 L-580.9017341040462 1430"></path><path d="M231.04046242774567 786.5000000000001 L-531.3930635838151 1430"></path><path d="M234.34104046242774 786.5000000000001 L-481.88439306358396 1430"></path><path d="M237.64161849710982 786.5000000000001 L-432.3757225433528 1430"></path><path d="M240.94219653179192 786.5000000000001 L-382.86705202312123 1430"></path><path d="M244.242774566474 786.5000000000001 L-333.3583815028901 1430"></path><path d="M247.54335260115607 786.5000000000001 L-283.84971098265896 1430"></path><path d="M250.84393063583815 786.5000000000001 L-234.34104046242783 1430"></path><path d="M254.14450867052022 786.5000000000001 L-184.8323699421967 1430"></path><path d="M257.4450867052023 786.5000000000001 L-135.3236994219651 1430"></path><path d="M260.7456647398844 786.5000000000001 L-85.81502890173397 1430"></path><path d="M264.04624277456645 786.5000000000001 L-36.30635838150283 1430"></path><path d="M267.3468208092485 786.5000000000001 L13.202312138728303 1430"></path><path d="M270.64739884393066 786.5000000000001 L62.71098265895944 1430"></path><path d="M273.94797687861274 786.5000000000001 L112.21965317919057 1430"></path><path d="M277.2485549132948 786.5000000000001 L161.7283236994217 1430"></path><path d="M280.5491329479769 786.5000000000001 L211.23699421965284 1430"></path><path d="M283.84971098265896 786.5000000000001 L260.745664739884 1430"></path><path d="M287.15028901734104 786.5000000000001 L310.254335260116 1430"></path><path d="M290.4508670520231 786.5000000000001 L359.76300578034716 1430"></path><path d="M293.7514450867052 786.5000000000001 L409.2716763005783 1430"></path><path d="M297.05202312138726 786.5000000000001 L458.7803468208094 1430"></path><path d="M300.35260115606934 786.5000000000001 L508.28901734104056 1430"></path><path d="M303.6531791907515 786.5000000000001 L557.7976878612717 1430"></path><path d="M306.95375722543355 786.5000000000001 L607.3063583815028 1430"></path><path d="M310.2543352601156 786.5000000000001 L656.815028901734 1430"></path><path d="M313.5549132947977 786.5000000000001 L706.3236994219651 1430"></path><path d="M316.8554913294798 786.5000000000001 L755.8323699421962 1430"></path><path d="M320.15606936416185 786.5000000000001 L805.3410404624274 1430"></path><path d="M323.4566473988439 786.5000000000001 L854.8497109826585 1430"></path><path d="M326.757225433526 786.5000000000001 L904.3583815028906 1430"></path><path d="M330.0578034682081 786.5000000000001 L953.8670520231217 1430"></path><path d="M333.35838150289015 786.5000000000001 L1003.3757225433528 1430"></path><path d="M336.65895953757223 786.5000000000001 L1052.884393063584 1430"></path><path d="M339.95953757225436 786.5000000000001 L1102.393063583815 1430"></path><path d="M343.26011560693644 786.5000000000001 L1151.9017341040462 1430"></path><path d="M346.5606936416185 786.5000000000001 L1201.4104046242774 1430"></path><path d="M349.8612716763006 786.5000000000001 L1250.9190751445085 1430"></path><path d="M353.16184971098266 786.5000000000001 L1300.4277456647396 1430"></path><path d="M356.46242774566474 786.5000000000001 L1349.9364161849708 1430"></path><path d="M359.7630057803468 786.5000000000001 L1399.445086705202 1430"></path><path d="M363.0635838150289 786.5000000000001 L1448.953757225434 1430"></path><path d="M366.36416184971097 786.5000000000001 L1498.462427745665 1430"></path><path d="M369.66473988439304 786.5000000000001 L1547.9710982658962 1430"></path><path d="M372.9653179190751 786.5000000000001 L1597.4797687861274 1430"></path><path d="M376.26589595375725 786.5000000000001 L1646.9884393063585 1430"></path><path d="M379.5664739884393 786.5000000000001 L1696.4971098265896 1430"></path><path d="M382.8670520231214 786.5000000000001 L1746.0057803468208 1430"></path><path d="M386.1676300578035 786.5000000000001 L1795.514450867052 1430"></path><path d="M389.46820809248555 786.5000000000001 L1845.023121387283 1430"></path><path d="M392.76878612716763 786.5000000000001 L1894.5317919075142 1430"></path><path d="M396.0693641618497 786.5000000000001 L1944.0404624277453 1430"></path><path d="M399.3699421965318 786.5000000000001 L1993.5491329479764 1430"></path><path d="M402.67052023121386 786.5000000000001 L2043.0578034682085 1430"></path><path d="M405.97109826589593 786.5000000000001 L2092.5664739884396 1430"></path><path d="M409.271676300578 786.5000000000001 L2142.0751445086707 1430"></path><path d="M412.57225433526014 786.5000000000001 L2191.583815028902 1430"></path><path d="M415.8728323699422 786.5000000000001 L2241.092485549133 1430"></path><path d="M419.1734104046243 786.5000000000001 L2290.601156069364 1430"></path><path d="M422.47398843930637 786.5000000000001 L2340.1098265895953 1430"></path><path d="M425.77456647398844 786.5000000000001 L2389.6184971098264 1430"></path><path d="M429.0751445086705 786.5000000000001 L2439.1271676300576 1430"></path><path d="M432.3757225433526 786.5000000000001 L2488.6358381502887 1430"></path><path d="M435.67630057803467 786.5000000000001 L2538.14450867052 1430"></path><path d="M438.97687861271675 786.5000000000001 L2587.653179190752 1430"></path><path d="M442.2774566473988 786.5000000000001 L2637.161849710983 1430"></path><path d="M445.5780346820809 786.5000000000001 L2686.670520231214 1430"></path><path d="M448.87861271676303 786.5000000000001 L2736.1791907514453 1430"></path><path d="M452.1791907514451 786.5000000000001 L2785.6878612716764 1430"></path><path d="M455.4797687861272 786.5000000000001 L2835.1965317919075 1430"></path><path d="M458.78034682080926 786.5000000000001 L2884.7052023121387 1430"></path><path d="M462.08092485549133 786.5000000000001 L2934.21387283237 1430"></path><path d="M465.3815028901734 786.5000000000001 L2983.722543352601 1430"></path><path d="M468.6820809248555 786.5000000000001 L3033.231213872832 1430"></path><path d="M471.98265895953756 786.5000000000001 L3082.739884393063 1430"></path><path d="M475.28323699421964 786.5000000000001 L3132.2485549132944 1430"></path><path d="M478.5838150289017 786.5000000000001 L3181.7572254335264 1430"></path><path d="M481.88439306358384 786.5000000000001 L3231.2658959537575 1430"></path><path d="M485.1849710982659 786.5000000000001 L3280.7745664739887 1430"></path><path d="M488.485549132948 786.5000000000001 L3330.28323699422 1430"></path><path d="M491.78612716763007 786.5000000000001 L3379.791907514451 1430"></path><path d="M495.08670520231215 786.5000000000001 L3429.300578034682 1430"></path><path d="M498.3872832369942 786.5000000000001 L3478.809248554913 1430"></path><path d="M501.6878612716763 786.5000000000001 L3528.3179190751443 1430"></path><path d="M504.9884393063584 786.5000000000001 L3577.8265895953755 1430"></path><path d="M508.28901734104045 786.5000000000001 L3627.3352601156066 1430"></path><path d="M511.5895953757225 786.5000000000001 L3676.8439306358378 1430"></path><path d="M514.8901734104046 786.5000000000001 L3726.35260115607 1430"></path><path d="M518.1907514450867 786.5000000000001 L3775.861271676301 1430"></path><path d="M521.4913294797688 786.5000000000001 L3825.369942196532 1430"></path><path d="M524.7919075144508 786.5000000000001 L3874.878612716763 1430"></path><path d="M528.0924855491329 786.5000000000001 L3924.3872832369943 1430"></path><path d="M531.393063583815 786.5000000000001 L3973.8959537572255 1430"></path><path d="M534.693641618497 786.5000000000001 L4023.4046242774566 1430"></path><path d="M537.9942196531792 786.5000000000001 L4072.9132947976877 1430"></path><path d="M541.2947976878613 786.5000000000001 L4122.421965317919 1430"></path><path d="M544.5953757225434 786.5000000000001 L4171.93063583815 1430"></path><path d="M547.8959537572255 786.5000000000001 L4221.439306358381 1430"></path><path d="M551.1965317919075 786.5000000000001 L4270.947976878613 1430"></path><path d="M554.4971098265896 786.5000000000001 L4320.456647398843 1430"></path><path d="M557.7976878612717 786.5000000000001 L4369.9653179190755 1430"></path><path d="M561.0982658959538 786.5000000000001 L4419.473988439306 1430"></path><path d="M564.3988439306358 786.5000000000001 L4468.982658959538 1430"></path><path d="M567.6994219653179 786.5000000000001 L4518.491329479768 1430"></path><path d="M571 786.5000000000001 L4568 1430"></path><g>
<path d="M0 786.5000000000001 L571 786.5000000000001"></path>
<animateTransform attributeName="transform" type="translate" repeatCount="indefinite" calcMode="linear" keyTimes="0;1" values="0 0;0 2.7521133348925786" begin="0s" dur="0.8333333333333334s"></animateTransform>

</g><g>
<path d="M0 789.2521133348927 L571 789.2521133348927"></path>
<animateTransform attributeName="transform" type="translate" repeatCount="indefinite" calcMode="linear" keyTimes="0;1" values="0 0;0 5.504226669785156" begin="0s" dur="0.8333333333333334s"></animateTransform>

</g><g>
<path d="M0 794.7563400046778 L571 794.7563400046778"></path>
<animateTransform attributeName="transform" type="translate" repeatCount="indefinite" calcMode="linear" keyTimes="0;1" values="0 0;0 8.256340004677735" begin="0s" dur="0.8333333333333334s"></animateTransform>

</g><g>
<path d="M0 803.0126800093556 L571 803.0126800093556"></path>
<animateTransform attributeName="transform" type="translate" repeatCount="indefinite" calcMode="linear" keyTimes="0;1" values="0 0;0 11.008453339570314" begin="0s" dur="0.8333333333333334s"></animateTransform>

</g><g>
<path d="M0 814.0211333489259 L571 814.0211333489259"></path>
<animateTransform attributeName="transform" type="translate" repeatCount="indefinite" calcMode="linear" keyTimes="0;1" values="0 0;0 13.760566674462892" begin="0s" dur="0.8333333333333334s"></animateTransform>

</g><g>
<path d="M0 827.7817000233888 L571 827.7817000233888"></path>
<animateTransform attributeName="transform" type="translate" repeatCount="indefinite" calcMode="linear" keyTimes="0;1" values="0 0;0 16.51268000935547" begin="0s" dur="0.8333333333333334s"></animateTransform>

</g><g>
<path d="M0 844.2943800327442 L571 844.2943800327442"></path>
<animateTransform attributeName="transform" type="translate" repeatCount="indefinite" calcMode="linear" keyTimes="0;1" values="0 0;0 19.264793344248048" begin="0s" dur="0.8333333333333334s"></animateTransform>

</g><g>
<path d="M0 863.5591733769922 L571 863.5591733769922"></path>
<animateTransform attributeName="transform" type="translate" repeatCount="indefinite" calcMode="linear" keyTimes="0;1" values="0 0;0 22.016906679140625" begin="0s" dur="0.8333333333333334s"></animateTransform>

</g><g>
<path d="M0 885.5760800561329 L571 885.5760800561329"></path>
<animateTransform attributeName="transform" type="translate" repeatCount="indefinite" calcMode="linear" keyTimes="0;1" values="0 0;0 24.769020014033202" begin="0s" dur="0.8333333333333334s"></animateTransform>

</g><g>
<path d="M0 910.3451000701662 L571 910.3451000701662"></path>
<animateTransform attributeName="transform" type="translate" repeatCount="indefinite" calcMode="linear" keyTimes="0;1" values="0 0;0 27.52113334892578" begin="0s" dur="0.8333333333333334s"></animateTransform>

</g><g>
<path d="M0 937.8662334190919 L571 937.8662334190919"></path>
<animateTransform attributeName="transform" type="translate" repeatCount="indefinite" calcMode="linear" keyTimes="0;1" values="0 0;0 30.273246683818357" begin="0s" dur="0.8333333333333334s"></animateTransform>

</g><g>
<path d="M0 968.1394801029103 L571 968.1394801029103"></path>
<animateTransform attributeName="transform" type="translate" repeatCount="indefinite" calcMode="linear" keyTimes="0;1" values="0 0;0 33.025360018710934" begin="0s" dur="0.8333333333333334s"></animateTransform>

</g><g>
<path d="M0 1001.1648401216212 L571 1001.1648401216212"></path>
<animateTransform attributeName="transform" type="translate" repeatCount="indefinite" calcMode="linear" keyTimes="0;1" values="0 0;0 35.77747335360351" begin="0s" dur="0.8333333333333334s"></animateTransform>

</g><g>
<path d="M0 1036.9423134752246 L571 1036.9423134752246"></path>
<animateTransform attributeName="transform" type="translate" repeatCount="indefinite" calcMode="linear" keyTimes="0;1" values="0 0;0 38.52958668849609" begin="0s" dur="0.8333333333333334s"></animateTransform>

</g><g>
<path d="M0 1075.4719001637206 L571 1075.4719001637206"></path>
<animateTransform attributeName="transform" type="translate" repeatCount="indefinite" calcMode="linear" keyTimes="0;1" values="0 0;0 41.281700023388666" begin="0s" dur="0.8333333333333334s"></animateTransform>

</g><g>
<path d="M0 1116.7536001871092 L571 1116.7536001871092"></path>
<animateTransform attributeName="transform" type="translate" repeatCount="indefinite" calcMode="linear" keyTimes="0;1" values="0 0;0 44.03381335828124" begin="0s" dur="0.8333333333333334s"></animateTransform>

</g><g>
<path d="M0 1160.7874135453906 L571 1160.7874135453906"></path>
<animateTransform attributeName="transform" type="translate" repeatCount="indefinite" calcMode="linear" keyTimes="0;1" values="0 0;0 46.78592669317382" begin="0s" dur="0.8333333333333334s"></animateTransform>

</g><g>
<path d="M0 1207.5733402385645 L571 1207.5733402385645"></path>
<animateTransform attributeName="transform" type="translate" repeatCount="indefinite" calcMode="linear" keyTimes="0;1" values="0 0;0 49.5380400280664" begin="0s" dur="0.8333333333333334s"></animateTransform>

</g><g>
<path d="M0 1257.111380266631 L571 1257.111380266631"></path>
<animateTransform attributeName="transform" type="translate" repeatCount="indefinite" calcMode="linear" keyTimes="0;1" values="0 0;0 52.290153362958975" begin="0s" dur="0.8333333333333334s"></animateTransform>

</g><g>
<path d="M0 1309.40153362959 L571 1309.40153362959"></path>
<animateTransform attributeName="transform" type="translate" repeatCount="indefinite" calcMode="linear" keyTimes="0;1" values="0 0;0 55.04226669785155" begin="0s" dur="0.8333333333333334s"></animateTransform>

</g><g>
<path d="M0 1364.4438003274415 L571 1364.4438003274415"></path>
<animateTransform attributeName="transform" type="translate" repeatCount="indefinite" calcMode="linear" keyTimes="0;1" values="0 0;0 57.79438003274413" begin="0s" dur="0.8333333333333334s"></animateTransform>

</g><g>
<path d="M0 1422.2381803601857 L571 1422.2381803601857"></path>
<animateTransform attributeName="transform" type="translate" repeatCount="indefinite" calcMode="linear" keyTimes="0;1" values="0 0;0 60.54649336763671" begin="0s" dur="0.8333333333333334s"></animateTransform>

</g><rect x="0" y="0" width="571" height="1430" fill="url(#fg-lg-0.17233231359503431)"></rect></g>
</svg>