<?xml version="1.0" encoding="UTF-8"?>
<svg width="54px" height="54px" version="1.1" viewBox="0 0 1200 1500" xmlns="http://www.w3.org/2000/svg">
 <g>
  <path d="m751.2 468.75c17.121-34.449 21.957-73.715 13.711-111.29-8.25-37.574-29.09-71.203-59.066-95.312-29.977-24.109-67.289-37.254-105.76-37.254-38.473 0-75.785 13.145-105.76 37.254-29.977 24.109-50.816 57.738-59.066 95.312-8.2461 37.574-3.4102 76.84 13.711 111.29h107.91c-8.4219-9.6289-13.082-21.973-13.125-34.762v-2.7383h37.5v2.7383c0.011719 4.2422 1.6992 8.3086 4.6992 11.312 3.0039 3 7.0703 4.6875 11.312 4.6992h5.4766c4.8438-0.003906 9.4258-2.1992 12.465-5.9766 3.0352-3.7734 4.1992-8.7188 3.168-13.453-1.0352-4.7305-4.1562-8.7422-8.4883-10.906l-36.543-18.281h-0.003906c-12.785-6.3633-22.484-17.582-26.926-31.156-4.4414-13.57-3.2578-28.355 3.293-41.043 6.5469-12.691 17.91-22.223 31.547-26.465v-21.469h37.5v21.469c10.836 3.3828 20.312 10.129 27.059 19.266 6.7422 9.1328 10.398 20.176 10.441 31.527v2.7383h-37.5v-2.7383c-0.011719-4.2422-1.6992-8.3086-4.6992-11.312-3.0039-3-7.0703-4.6875-11.312-4.6992h-5.4766c-4.8438 0.003906-9.4258 2.1992-12.465 5.9766-3.0352 3.7734-4.1992 8.7188-3.168 13.453 1.0352 4.7305 4.1562 8.7422 8.4883 10.906l36.543 18.281h0.003906c14.801 7.3047 25.367 21.074 28.594 37.262 3.2227 16.188-1.2578 32.953-12.133 45.371zm-244.95-56.25h-37.5v-37.5h37.5zm187.5-37.5h37.5v37.5h-37.5z"/>
  <path d="m329.2 468.75c-5.1133-18.371-8.3164-37.223-9.5625-56.25h-94.633v487.5h750v-487.5h-94.633c-1.2461 19.027-4.4492 37.879-9.5625 56.25h29.195v37.5h-600v-37.5zm458.3 112.5h131.25v37.5h-131.25zm-75 0h37.5v37.5h-37.5zm-37.5 75h243.75v37.5h-243.75zm0 75h243.75v37.5h-243.75zm0 75h206.25v37.5h-206.25zm-356.25 0v-93.75h37.5v93.75h37.5v-131.25h37.5v131.25h37.5v-112.5h37.5v112.5h37.5v-187.5h37.5v187.5h37.5v37.5h-337.5v-37.5z"/>
  <path d="m408.23 468.75c-16.531-41.867-18.91-87.988-6.7773-131.33 12.133-43.344 38.109-81.531 73.973-108.73 35.859-27.203 79.633-41.926 124.64-41.926 45.008 0 88.785 14.723 124.64 41.926 35.859 27.199 61.84 65.387 73.973 108.73 12.129 43.344 9.75 89.465-6.7773 131.33h39.75c7.9766-24.203 12.059-49.516 12.094-75 0-64.648-25.68-126.64-71.395-172.36-45.711-45.715-107.71-71.395-172.36-71.395s-126.64 25.68-172.36 71.395c-45.715 45.711-71.395 107.71-71.395 172.36 0.035156 25.484 4.1172 50.797 12.094 75z"/>
  <path d="m776.51 1050-32.008 32.008h0.003906c-3.5156 3.5156-8.2852 5.4922-13.258 5.4922h-262.5c-4.9727 0-9.7422-1.9766-13.258-5.4922l-32.004-32.008h-348.49v37.5c0 9.9453 3.9492 19.484 10.984 26.516 7.0312 7.0352 16.57 10.984 26.516 10.984h975c9.9453 0 19.484-3.9492 26.516-10.984 7.0352-7.0312 10.984-16.57 10.984-26.516v-37.5z"/>
  <path d="m444.51 1018 32.004 32.008h246.98l32.008-32.008h-0.003906c3.5156-3.5156 8.2852-5.4922 13.258-5.4922h281.25v-637.5c0-9.9453-3.9492-19.484-10.984-26.516-7.0312-7.0352-16.57-10.984-26.516-10.984h-136.88c2.4023 12.383 3.9727 24.91 4.707 37.5h113.42c4.9727 0 9.7422 1.9766 13.258 5.4922 3.5156 3.5156 5.4922 8.2852 5.4922 13.258v525c0 4.9727-1.9766 9.7422-5.4922 13.258-3.5156 3.5156-8.2852 5.4922-13.258 5.4922h-787.5c-4.9727 0-9.7422-1.9766-13.258-5.4922-3.5156-3.5156-5.4922-8.2852-5.4922-13.258v-525c0-4.9727 1.9766-9.7422 5.4922-13.258 3.5156-3.5156 8.2852-5.4922 13.258-5.4922h113.46c0.73047-12.59 2.3047-25.117 4.707-37.5h-136.91c-9.9453 0-19.484 3.9492-26.516 10.984-7.0352 7.0312-10.984 16.57-10.984 26.516v637.5h281.25c4.9727 0 9.7422 1.9766 13.258 5.4922zm136.74-42.992h37.5v37.5h-37.5z"/>
 </g>
</svg>
