<?xml version="1.0" encoding="UTF-8"?>
<svg width="42px" height="42px" version="1.1" viewBox="0 0 1200 1200" xmlns="http://www.w3.org/2000/svg">
 <g>
  <path d="m890.91 260.55h-824.18c-26.727 0-48.543 21.816-48.543 48.543v169.64h921.09v-169.64c0.17969-26.727-21.637-48.543-48.363-48.543zm-751.46 169.82c-26.727 0-48.543-21.816-48.543-48.547 0-26.727 21.637-48.547 48.547-48.547 26.727 0 48.547 21.637 48.547 48.547-0.1875 26.73-21.82 48.547-48.551 48.547zm145.46 0c-26.727 0-48.547-21.816-48.547-48.547 0-26.727 21.637-48.547 48.547-48.547 26.727 0 48.547 21.637 48.547 48.547-0.18359 26.73-21.82 48.547-48.547 48.547zm145.45 0c-26.91 0-48.547-21.816-48.547-48.547 0-26.727 21.637-48.547 48.547-48.547 26.727 0 48.547 21.637 48.547 48.547-0.18359 26.73-21.82 48.547-48.547 48.547z"/>
  <path d="m139.45 672.73h242.36v242.36h-242.36z"/>
  <path d="m18.184 1133.3c0 26.727 21.816 48.543 48.543 48.543h824.18c26.727 0 48.547-21.637 48.547-48.547l-0.003906-606h-921.27zm484.91-339.27h339.45c13.453 0 24.184 10.91 24.184 24.184 0 13.453-10.91 24.184-24.184 24.184l-339.45-0.003907c-13.453 0-24.184-10.91-24.184-24.184-0.17969-13.453 10.73-24.18 24.184-24.18zm0 121.09h339.45c13.453 0 24.184 10.91 24.184 24.184 0 13.453-10.91 24.184-24.184 24.184l-339.45-0.003906c-13.453 0-24.184-10.91-24.184-24.184-0.17969-13.27 10.73-24.18 24.184-24.18zm-412.18-266.54c0-13.453 10.91-24.184 24.184-24.184h290.91c13.453 0 24.184 10.91 24.184 24.184v290.91c0 13.453-10.91 24.184-24.184 24.184h-290.91c-13.277-0.003906-24.184-10.914-24.184-24.188zm24.363 387.82h727.27c13.453 0 24.184 10.91 24.184 24.184 0 13.453-10.91 24.184-24.184 24.184h-727.27c-13.457-0.003907-24.363-10.73-24.363-24.184 0-13.457 10.906-24.184 24.363-24.184z"/>
  <path d="m1133.3 18.184h-824.18c-26.727 0-48.547 21.637-48.547 48.547l0.003906 24.18h751.45c53.637 0 97.09 43.453 97.09 97.09v751.45h24.184c26.727 0 48.543-21.816 48.543-48.543v-824.18c0-26.727-21.816-48.543-48.543-48.543z"/>
  <path d="m1012 139.45h-824c-26.727 0-48.547 21.637-48.547 48.547v24.184h751.46c53.453 0 96.91 43.453 96.91 96.91v751.45h24.184c26.727 0 48.547-21.637 48.547-48.547l-0.003906-824c0-26.91-21.637-48.547-48.547-48.547z"/>
 </g>
</svg>
