<?xml version="1.0" encoding="UTF-8"?>
<svg width="42px" height="42px" version="1.1" viewBox="0 0 1200 1200" xmlns="http://www.w3.org/2000/svg">
 <g>
  <path d="m680.59 356.27h0.039062c23.531 0 45.676 9.1484 62.305 25.801 16.633 16.648 25.82 38.793 25.82 62.344v48.695c0 48.602-39.523 88.145-88.145 88.164-18.188 0-36.148-2.9062-53.398-8.6797l-8.457-2.8203v198.98h243.75v-149.51l243.75 178.74v-228.21l-8.4922 2.832c-17.234 5.7383-35.176 8.6445-53.344 8.6445-48.621 0-88.164-39.543-88.164-88.145v-48.711c0-48.602 39.543-88.145 88.145-88.145 18.207 0 36.168 2.9062 53.418 8.6797l8.4375 2.8125v-142.74c0-10.352-8.3984-18.75-18.75-18.75h-194.77l22.855-68.512c2.0977-6.3203 3.168-12.902 3.168-19.574 0-34.145-27.77-61.914-61.914-61.914h-26.176c-34.141 0-61.91 27.77-61.91 61.93 0 6.6562 1.0703 13.238 3.168 19.555l22.855 68.516h-157.27c-10.352 0-18.75 8.3984-18.75 18.75v142.74l8.4766-2.8125c17.25-5.7539 35.191-8.6602 53.359-8.6602z"/>
  <path d="m174.24 705.66c8.25 8.2695 17.699 5.1758 20.438 4.1055 2.7031-1.1445 11.57-5.7188 11.57-17.344v-36.168h150v36.168c0 11.625 8.8672 16.199 11.57 17.344 2.7188 1.0859 12.188 4.1641 20.438-4.0859l25.594-25.555 88.648 88.629h78.75v-250.99l57.824 19.238c13.426 4.4805 27.395 6.75 41.531 6.75 27.918 0 50.645-22.727 50.645-50.645v-48.695c0-13.539-5.2695-26.25-14.832-35.812-9.5625-9.582-22.273-14.832-35.793-14.832h-0.039062c-14.117 0-28.086 2.2695-41.512 6.7305l-57.824 19.297v-194.79c0-10.352-8.3984-18.75-18.75-18.75h-194.77l22.855-68.512c2.0977-6.3203 3.168-12.902 3.168-19.574 0-34.145-27.77-61.914-61.914-61.914h-26.176c-34.141 0-61.91 27.77-61.91 61.93 0 6.6562 1.0703 13.238 3.168 19.555l22.855 68.516h-157.27c-10.352 0-18.75 8.3984-18.75 18.75v510l54.898-54.898zm313.26-293.16c20.719 0 37.5 16.781 37.5 37.5s-16.781 37.5-37.5 37.5-37.5-16.781-37.5-37.5 16.781-37.5 37.5-37.5zm-150 0c20.719 0 37.5 16.781 37.5 37.5s-16.781 37.5-37.5 37.5-37.5-16.781-37.5-37.5 16.781-37.5 37.5-37.5zm-150 0c20.719 0 37.5 16.781 37.5 37.5s-16.781 37.5-37.5 37.5-37.5-16.781-37.5-37.5 16.781-37.5 37.5-37.5z"/>
  <path d="m1132.4 863.72-232.45-170.46v112.99h-400.16l-5.4766 5.4922c-8.2305 8.2109-5.2109 17.699-4.1055 20.438 1.1289 2.7031 5.7031 11.57 17.328 11.57h36.168v112.5h356.25v108.94z"/>
  <path d="m455.61 846.51c-8.6992-21-4.3516-44.008 11.289-60.336l-53.062-53.062c-16.293 15.617-39.281 19.988-60.336 11.289-21.02-8.6992-34.219-28.031-34.727-50.645h-75.039c-0.48828 22.613-13.688 41.945-34.727 50.645-21.039 8.6992-43.988 4.3516-60.336-11.289l-53.043 53.078c15.637 16.332 19.969 39.336 11.289 60.336-8.7188 21.02-28.051 34.219-50.664 34.707v75.039c22.613 0.48828 41.945 13.688 50.645 34.727 8.6992 21 4.3516 44.008-11.289 60.336l53.062 53.062c16.332-15.617 39.32-19.949 60.336-11.289 21.02 8.6992 34.219 28.031 34.727 50.645h75.039c0.48828-22.613 13.688-41.945 34.727-50.645 21.039-8.6992 43.988-4.3672 60.336 11.289l53.062-53.062c-15.637-16.332-19.969-39.336-11.289-60.336 8.6992-21.02 28.031-34.219 50.645-34.727v-75.039c-22.613-0.48828-41.945-13.688-50.645-34.723zm-174.36 203.49c-72.488 0-131.25-58.762-131.25-131.25s58.762-131.25 131.25-131.25 131.25 58.762 131.25 131.25-58.762 131.25-131.25 131.25z"/>
  <path d="m337.5 918.75c0 31.066-25.184 56.25-56.25 56.25s-56.25-25.184-56.25-56.25 25.184-56.25 56.25-56.25 56.25 25.184 56.25 56.25"/>
 </g>
</svg>
