<svg width="150" height="50" viewBox="0 0 132 24" fill="none" xmlns="http://www.w3.org/2000/svg">
<path d="M0.483456 15.1007C-0.086376 13.2658 2.09952 13.1156 3.13163 14.7362C4.10751 16.2685 5.45055 17.7103 7.29894 18.6782C8.43872 19.2744 9.4074 19.5016 10.7654 19.8188C16.494 21.1585 21.4424 19.8355 22.9846 19.4026C24.0649 19.1003 24.317 18.9538 28.3736 17.7083C29.9547 17.2246 31.4152 16.7891 33.3542 16.8458C33.9194 16.8623 33.9641 17.5853 33.4296 17.7698C32.4454 18.1096 31.4804 18.5048 30.539 18.9538C28.5604 19.8954 27.8818 20.5065 26.1634 21.3599C24.135 22.3582 21.9773 23.0645 19.7538 23.458C17.6875 23.8485 14.2004 24.5095 10.0182 23.3373C8.24448 22.8377 5.28802 21.9694 2.88698 19.2577C1.21162 17.3678 0.600822 15.4787 0.483456 15.1007Z" fill="#496AFF"/>
<path d="M2.90347 5.26526C3.31898 4.21484 4.53847 5.02427 4.4123 6.14681C4.34648 6.7325 4.32763 7.34987 4.37284 7.99404C4.45399 9.12772 4.71635 10.2408 5.14977 11.2902C6.6028 14.7278 9.78986 16.8359 9.58488 17.0807C9.57083 17.0982 9.53529 17.1115 9.43776 17.0807C8.37734 16.6802 5.96637 15.5987 4.17696 13.0386C3.64964 12.2834 2.50077 10.6383 2.3768 8.40367C2.31253 7.25471 2.53322 6.2013 2.90347 5.26526Z" fill="#889DFF"/>
<path d="M18.1526 8.85339C18.3096 8.82092 18.5799 5.8037 16.764 4.15688C15.7499 3.24106 14.5002 3.122 14.0588 3.0812C13.8175 3.05873 12 2.91885 10.3932 4.12108C8.08557 5.84616 8.11615 8.91417 8.15086 9.64267C8.29881 12.7848 10.5205 14.8321 10.9982 15.2717C16.5541 20.3894 26.7451 16.8535 28.3676 15.9885C28.4411 15.9494 28.7197 15.797 29.1114 15.6297C29.8594 15.3133 30.8174 15.031 32.9911 14.8803C33.7739 14.8246 33.9521 13.8814 33.182 13.7306C32.6186 13.6203 32.1245 13.5709 31.7133 13.5507C30.5653 13.4933 29.4412 13.634 27.1931 13.9087C26.2426 14.0261 25.8847 14.0911 25.1268 14.196C20.7057 14.8104 18.4493 15.1001 16.1929 14.2318C14.887 13.7322 14.0985 13.0912 13.8439 12.8689C13.2331 12.3377 12.0008 11.2653 11.7437 9.49863C11.6991 9.19391 11.3801 6.75116 12.9893 5.6988C14.0142 5.02775 15.1978 5.33996 15.3366 5.37576C16.4227 5.67798 16.9955 6.54135 17.3657 7.09667C18.0278 8.08743 18.0708 8.87088 18.1526 8.85339Z" fill="#496AFF"/>
<path d="M6.44111 6.7745C6.38408 6.13592 6.32209 4.4941 7.29573 2.8298C7.50071 2.48012 8.09498 1.48853 9.21739 0.786681C9.64355 0.520118 10.083 0.334538 10.5207 0.210866C11.5565 -0.081793 11.5171 1.07289 10.5579 1.56119C9.77849 1.95798 9.24783 2.42992 8.87273 2.88059C7.53873 4.48245 7.00727 7.20993 6.60311 7.11003C6.50475 7.08838 6.46177 6.90688 6.44111 6.7745Z" fill="#889DFF"/>
<path d="M47.92 6.98619V9.4545H40V6.98619H47.92ZM41.9553 3.74212H45.2023V16.4539C45.2023 16.8829 45.268 17.2121 45.3996 17.4413C45.5371 17.6646 45.7165 17.8174 45.9377 17.8997C46.159 17.9819 46.4042 18.0231 46.6732 18.0231C46.8765 18.0231 47.0619 18.0084 47.2293 17.979C47.4028 17.9496 47.5343 17.9232 47.624 17.8997L48.1711 20.3944C47.9977 20.4532 47.7496 20.5178 47.4267 20.5884C47.1097 20.6589 46.7211 20.7 46.2606 20.7118C45.4474 20.7353 44.7149 20.6148 44.0631 20.3503C43.4114 20.08 42.8941 19.6627 42.5114 19.0986C42.1347 18.5344 41.9494 17.8291 41.9553 16.9829V3.74212Z" fill="white" fill-opacity="0.9"/>
<path d="M60.5693 10.5652L57.6094 10.8826C57.5257 10.5887 57.3792 10.3125 57.1699 10.0539C56.9666 9.79536 56.6915 9.58673 56.3447 9.42805C55.9979 9.26938 55.5733 9.19004 55.071 9.19004C54.3953 9.19004 53.8273 9.33402 53.3668 9.62199C52.9124 9.90996 52.6882 10.2831 52.6941 10.7415C52.6882 11.1353 52.8347 11.4556 53.1336 11.7024C53.4386 11.9493 53.9409 12.152 54.6405 12.3107L56.9905 12.8044C58.294 13.0806 59.2627 13.5184 59.8966 14.1178C60.5364 14.7173 60.8593 15.5019 60.8653 16.4716C60.8593 17.3237 60.6051 18.076 60.1029 18.7283C59.6066 19.3748 58.9159 19.8802 58.0309 20.2446C57.1459 20.6089 56.1294 20.7911 54.9813 20.7911C53.2951 20.7911 51.9377 20.4444 50.9092 19.7509C49.8807 19.0515 49.2678 18.0789 49.0705 16.833L52.2367 16.5333C52.3802 17.1445 52.6852 17.6058 53.1516 17.9173C53.618 18.2288 54.2249 18.3845 54.9724 18.3845C55.7437 18.3845 56.3626 18.2288 56.829 17.9173C57.3014 17.6058 57.5376 17.2209 57.5376 16.7625C57.5376 16.3746 57.3851 16.0543 57.0802 15.8016C56.7812 15.5489 56.3148 15.3549 55.6809 15.2198L53.331 14.7349C52.0095 14.4646 51.0318 14.0091 50.398 13.3685C49.7641 12.7221 49.4502 11.9052 49.4562 10.9179C49.4502 10.0833 49.6804 9.36047 50.1468 8.74927C50.6192 8.13219 51.274 7.65616 52.1111 7.32117C52.9542 6.98031 53.9259 6.80988 55.0262 6.80988C56.6407 6.80988 57.9113 7.1478 58.8382 7.82365C59.771 8.4995 60.348 9.41336 60.5693 10.5652Z" fill="white" fill-opacity="0.9"/>
<path d="M71.5659 14.8319V6.98619H74.8129V20.5266H71.6646V18.12H71.5211C71.2102 18.8782 70.6989 19.4982 69.9873 19.9801C69.2817 20.462 68.4117 20.703 67.3772 20.703C66.4743 20.703 65.676 20.5061 64.9824 20.1123C64.2947 19.7127 63.7566 19.1338 63.3679 18.3757C62.9792 17.6117 62.7849 16.689 62.7849 15.6076V6.98619H66.0318V15.114C66.0318 15.972 66.271 16.6537 66.7494 17.1592C67.2277 17.6646 67.8556 17.9173 68.6329 17.9173C69.1113 17.9173 69.5747 17.8027 70.0232 17.5735C70.4717 17.3443 70.8394 17.0034 71.1264 16.5509C71.4194 16.0925 71.5659 15.5195 71.5659 14.8319Z" fill="white" fill-opacity="0.9"/>
<path d="M80.6409 12.5928V20.5266H77.394V6.98619H80.4974V9.28701H80.6589C80.9758 8.52888 81.481 7.9265 82.1747 7.47985C82.8743 7.0332 83.7383 6.80988 84.7668 6.80988C85.7176 6.80988 86.5458 7.0097 87.2514 7.40933C87.9629 7.80896 88.5131 8.38784 88.9017 9.14596C89.2964 9.90409 89.4907 10.8238 89.4847 11.9052V20.5266H86.2378V12.3988C86.2378 11.4938 85.9986 10.7856 85.5203 10.2743C85.0479 9.76304 84.3931 9.50739 83.556 9.50739C82.9879 9.50739 82.4826 9.63081 82.0401 9.87764C81.6036 10.1186 81.2598 10.4683 81.0087 10.9267C80.7635 11.3851 80.6409 11.9404 80.6409 12.5928Z" fill="white" fill-opacity="0.9"/>
<path d="M95.9922 20.7999C95.1192 20.7999 94.3329 20.6471 93.6333 20.3415C92.9396 20.03 92.3895 19.5716 91.9829 18.9663C91.5823 18.361 91.382 17.6146 91.382 16.7272C91.382 15.9632 91.5255 15.3314 91.8125 14.8319C92.0995 14.3324 92.4912 13.9327 92.9875 13.633C93.4838 13.3333 94.0429 13.107 94.6648 12.9542C95.2926 12.7955 95.9414 12.6809 96.6111 12.6104C97.4184 12.5281 98.0731 12.4547 98.5754 12.39C99.0777 12.3195 99.4425 12.2137 99.6697 12.0727C99.9029 11.9258 100.019 11.6995 100.019 11.3939V11.341C100.019 10.6769 99.8192 10.1627 99.4185 9.7983C99.0179 9.43393 98.4409 9.25175 97.6875 9.25175C96.8922 9.25175 96.2613 9.42218 95.7949 9.76304C95.3345 10.1039 95.0235 10.5065 94.8621 10.9707L91.8304 10.5476C92.0696 9.72484 92.4643 9.03724 93.0144 8.4848C93.5645 7.9265 94.2372 7.50923 95.0325 7.23302C95.8278 6.95093 96.7068 6.80988 97.6695 6.80988C98.3332 6.80988 98.994 6.88628 99.6517 7.03908C100.31 7.19188 100.91 7.44459 101.455 7.7972C101.999 8.14394 102.435 8.61704 102.764 9.21648C103.099 9.81593 103.266 10.5652 103.266 11.4644V20.5266H100.145V18.6666H100.037C99.8401 19.0427 99.5621 19.3953 99.2033 19.7244C98.8505 20.0477 98.405 20.3092 97.8668 20.509C97.3347 20.703 96.7098 20.7999 95.9922 20.7999ZM96.8354 18.455C97.4871 18.455 98.0522 18.3287 98.5306 18.076C99.0089 17.8174 99.3767 17.4765 99.6338 17.0534C99.8969 16.6302 100.028 16.1689 100.028 15.6694V14.0738C99.9268 14.156 99.7534 14.2324 99.5082 14.303C99.2691 14.3735 99 14.4352 98.701 14.4881C98.402 14.541 98.106 14.588 97.813 14.6291C97.52 14.6703 97.2659 14.7055 97.0506 14.7349C96.5663 14.7996 96.1328 14.9054 95.7501 15.0523C95.3674 15.1992 95.0654 15.4049 94.8441 15.6694C94.6229 15.9279 94.5123 16.2629 94.5123 16.6743C94.5123 17.262 94.7305 17.7057 95.167 18.0054C95.6036 18.3052 96.1597 18.455 96.8354 18.455Z" fill="white" fill-opacity="0.9"/>
<path d="M105.774 20.5266V6.98619H108.877V9.28701H109.038C109.325 8.51125 109.801 7.90593 110.465 7.47103C111.128 7.03026 111.921 6.80988 112.841 6.80988C113.774 6.80988 114.561 7.0332 115.2 7.47985C115.846 7.92062 116.301 8.52301 116.564 9.28701H116.707C117.012 8.53476 117.526 7.93531 118.25 7.48867C118.98 7.03614 119.844 6.80988 120.842 6.80988C122.11 6.80988 123.144 7.20363 123.946 7.99114C124.747 8.77865 125.147 9.92759 125.147 11.438V20.5266H121.892V11.9316C121.892 11.0912 121.664 10.4771 121.21 10.0892C120.755 9.69545 120.199 9.49858 119.542 9.49858C118.758 9.49858 118.145 9.73953 117.703 10.2214C117.266 10.6975 117.048 11.3175 117.048 12.0815V20.5266H113.864V11.7994C113.864 11.1 113.649 10.5417 113.218 10.1245C112.794 9.70721 112.237 9.49858 111.55 9.49858C111.083 9.49858 110.659 9.61611 110.276 9.85119C109.893 10.0804 109.589 10.4066 109.361 10.8297C109.134 11.247 109.02 11.7348 109.02 12.2931V20.5266H105.774Z" fill="white" fill-opacity="0.9"/>
<path d="M127.684 20.5266V6.98619H130.931V20.5266H127.684ZM129.316 5.06443C128.802 5.06443 128.359 4.89694 127.989 4.56195C127.618 4.22109 127.433 3.81264 127.433 3.33661C127.433 2.8547 127.618 2.44625 127.989 2.11127C128.359 1.77041 128.802 1.59998 129.316 1.59998C129.836 1.59998 130.279 1.77041 130.644 2.11127C131.014 2.44625 131.2 2.8547 131.2 3.33661C131.2 3.81264 131.014 4.22109 130.644 4.56195C130.279 4.89694 129.836 5.06443 129.316 5.06443Z" fill="white" fill-opacity="0.9"/>
</svg>
