<svg width="1700" height="475">
<path style="fill:#000000; stroke:none;" d="M0 0L0 475L1700 475L1700 0L0 0z"/>
<path style="fill:#e4e4e4; stroke:none;" d="M437 37L437 115L438 115L438 38L696 38L696 110L697 110L697 37L437 37z"/>
<path style="fill:#e8e8e8; stroke:none;" d="M770 37L770 38L834 38L868 39C863.928 34.3407 848.985 37 843 37L770 37M1064 37L1064 38L1133 38C1140.43 38 1153.94 35.4118 1160 40C1161.76 35.3182 1141.65 37 1138 37L1064 37z"/>
<path style="fill:#ffffff; stroke:none;" d="M438 38L438 90C438 97.0394 436.098 107.357 438.603 113.985C442.338 123.867 460.004 133.258 468 139.92C487.55 156.208 507.255 172.337 527 188.389C536.048 195.744 545.384 206.137 556 211L556 213C544.968 218.145 535.566 231.434 527 240L468 299C460.004 306.996 442.533 318.341 438.603 329C436.04 335.951 438 346.634 438 354L438 410L702 410L702 337L526 337L620 244L643 221L650.793 211.015L644 203.197L623 186.081L561 135.389L530 111L530 110L696 110L696 38L438 38M771 38C772.816 48.5538 778.273 58.9547 781.947 69C789.518 89.7018 797.249 110.345 804.95 131C828.293 193.615 850.993 256.475 874.576 319C882.978 341.274 891.063 363.672 899.319 386C901.275 391.293 904.199 406.839 909.419 409.397C915.619 412.434 928.137 410 935 410L997 410C1003.1 410 1018.67 412.781 1023.3 408.397C1029.02 402.975 1031.36 388.372 1034.05 381C1042.24 358.626 1050.63 336.323 1058.95 314C1081.92 252.388 1104.39 190.588 1127.42 129C1134.78 109.34 1142.02 89.64 1149.42 70C1153.19 60.015 1159.45 48.73 1160 38L1091 38C1084.56 38 1069.88 35.26 1064.51 39.0278C1061.13 41.4033 1060.29 48.3235 1058.95 52C1054.46 64.2699 1050.54 76.73 1046.05 89C1044.01 94.5946 1043.21 104.292 1035.98 104.941C1002.91 107.913 968.22 105 935 105C923.738 105 903.498 108.96 893.225 104.397C888.56 102.325 886.816 92.4331 885.333 88C881.423 76.3104 877.558 64.5268 873.192 53C871.696 49.0486 870.745 42.4893 867.49 39.6034C862.683 35.3415 848.141 38 842 38L771 38z"/>
<path style="fill:#9b9b9b; stroke:none;" d="M772 43L773 44L772 43z"/>
<path style="fill:#888888; stroke:none;" d="M185.667 45.3333L186.333 45.6667L185.667 45.3333z"/>
<path style="fill:#ffffff; stroke:none;" d="M76 303C66.0265 320.153 59.1642 339.85 51.1397 358C49.1038 362.605 42.0654 372.785 44.213 377.816C46.6217 383.458 57.7679 387.741 63 390.219C81.9201 399.18 101.65 404.926 122 409.499C198.692 426.734 319.047 422.317 347.806 332C350.958 322.1 352 311.341 352 301C352 288.511 350.609 276.816 346.305 265C328.899 217.216 269.798 203.703 226 193.651C205.496 188.946 182.837 186.089 164 176.215C155.45 171.734 146.974 162.488 149.61 152C153.711 135.685 171.531 126.976 187 125.054C217.723 121.237 248.315 127.503 277 138.424C286.82 142.163 296.69 149.162 307 151C312.347 132.295 321.894 113.946 329.424 96C331.305 91.5174 338.124 80.9697 335.867 76.213C333.463 71.1456 322.83 68.2249 318 66.1505C299.805 58.3363 280.523 53.0132 261 49.7531C188.558 37.6562 82.0238 43.9653 54.0039 127C50.2584 138.099 49 149.349 49 161C49 172.35 49.9483 184.151 53.5193 195C71.2005 248.717 135.61 261.54 184 271.45C201.943 275.124 225.834 279.798 240.996 290.443C249.619 296.497 255.278 307.766 250.16 318C241.627 335.066 216.96 337.917 200 337.999C168.972 338.149 138.805 332.274 110 320.548C98.1695 315.732 87.7888 307.462 76 303z"/>
<path style="fill:#5e5e5e; stroke:none;" d="M227 45L228 46L227 45z"/>
<path style="fill:#6c6c6c; stroke:none;" d="M1158 45L1159 46L1158 45z"/>
<path style="fill:#cbcbcb; stroke:none;" d="M235 46L235 47L238 47L235 46z"/>
<path style="fill:#626262; stroke:none;" d="M238 46L239 47L238 46z"/>
<path style="fill:#bcbcbc; stroke:none;" d="M244 47L244 48L247 48L244 47z"/>
<path style="fill:#717171; stroke:none;" d="M253 48L254 49L253 48z"/>
<path style="fill:#737373; stroke:none;" d="M871 48L872 49L871 48z"/>
<path style="fill:#878787; stroke:none;" d="M259 49L260 50L259 49z"/>
<path style="fill:#6f6f6f; stroke:none;" d="M1059 50L1060 51L1059 50z"/>
<path style="fill:#a1a1a1; stroke:none;" d="M775 51L776 52L775 51z"/>
<path style="fill:#878787; stroke:none;" d="M872 51L873 52L872 51z"/>
<path style="fill:#a5a5a5; stroke:none;" d="M274 52L275 53L274 52z"/>
<path style="fill:#ffffff; stroke:none;" d="M1227 52C1236.54 78.2219 1254.41 103.438 1267.69 128C1300.87 189.345 1334.67 249.683 1371.42 309C1380.69 323.952 1389.94 338.926 1399 354C1402.24 359.385 1406.19 369.523 1411.53 372.972C1414.53 374.909 1419.6 374 1423 374C1432.97 374 1446.29 376.342 1455.9 373.682C1462.41 371.877 1467.25 358.465 1470.42 353C1481.52 333.88 1493.03 314.956 1504.4 296C1538.34 239.434 1569.94 181.994 1601.31 124C1614.09 100.365 1629.63 76.7746 1640 52L1581 52L1558.53 53.0278L1548.2 69L1523.8 110L1436 258L1400.42 199L1346.2 110L1322 70L1310.67 53.0278L1287 52L1227 52z"/>
<path style="fill:#808080; stroke:none;" d="M1058 53L1059 54L1058 53z"/>
<path style="fill:#717171; stroke:none;" d="M1155 53L1156 54L1155 53z"/>
<path style="fill:#767676; stroke:none;" d="M1557 53L1558 54L1557 53z"/>
<path style="fill:#666666; stroke:none;" d="M283 54L284 55L283 54z"/>
<path style="fill:#9f9f9f; stroke:none;" d="M1228 55L1229 56L1228 55z"/>
<path style="fill:#989898; stroke:none;" d="M290 56L291 57L290 56z"/>
<path style="fill:#919191; stroke:none;" d="M126 57L127 58L126 57z"/>
<path style="fill:#636363; stroke:none;" d="M1229 57L1230 58L1229 57z"/>
<path style="fill:#606060; stroke:none;" d="M1554 58L1555 59L1554 58z"/>
<path style="fill:#8c8c8c; stroke:none;" d="M121 59L122 60L121 59z"/>
<path style="fill:#7d7d7d; stroke:none;" d="M300 59L301 60L300 59z"/>
<path style="fill:#a1a1a1; stroke:none;" d="M778 59L779 60L778 59z"/>
<path style="fill:#575757; stroke:none;" d="M303 60L304 61L303 60z"/>
<path style="fill:#959595; stroke:none;" d="M1635 60L1636 61L1635 60z"/>
<path style="fill:#808080; stroke:none;" d="M1152 61L1153 62L1152 61z"/>
<path style="fill:#606060; stroke:none;" d="M779 62L780 63L779 62z"/>
<path style="fill:#696969; stroke:none;" d="M1634 62L1635 63L1634 62z"/>
<path style="fill:#747474; stroke:none;" d="M311 63L312 64L311 63z"/>
<path style="fill:#626262; stroke:none;" d="M1318 64L1319 65L1318 64M316 65L317 66L316 65z"/>
<path style="fill:#9f9f9f; stroke:none;" d="M1550 65L1551 66L1550 65z"/>
<path style="fill:#a6a6a6; stroke:none;" d="M318 66L319 67L318 66z"/>
<path style="fill:#999999; stroke:none;" d="M1234 66L1235 67L1234 66z"/>
<path style="fill:#a3a3a3; stroke:none;" d="M781 67L782 68L781 67z"/>
<path style="fill:#919191; stroke:none;" d="M103 68L104 69L103 68z"/>
<path style="fill:#767676; stroke:none;" d="M1235 68L1236 69L1235 68z"/>
<path style="fill:#818181; stroke:none;" d="M1149 69L1150 70L1149 69z"/>
<path style="fill:#707070; stroke:none;" d="M1321 69L1322 70L1321 69z"/>
<path style="fill:#6c6c6c; stroke:none;" d="M782 70L783 71L782 70z"/>
<path style="fill:#8f8f8f; stroke:none;" d="M1547 70L1548 71L1547 70z"/>
<path style="fill:#6f6f6f; stroke:none;" d="M879 71L880 72L879 71z"/>
<path style="fill:#a2a2a2; stroke:none;" d="M1629 71L1630 72L1629 71z"/>
<path style="fill:#696969; stroke:none;" d="M95 73L96 74L95 73z"/>
<path style="fill:#7d7d7d; stroke:none;" d="M1628 73L1629 74L1628 73M1324 74L1325 75L1324 74z"/>
<path style="fill:#868686; stroke:none;" d="M336 75L337 76L336 75z"/>
<path style="fill:#797979; stroke:none;" d="M1544 75L1545 76L1544 75z"/>
<path style="fill:#9c9c9c; stroke:none;" d="M91 76L92 77L91 76z"/>
<path style="fill:#909090; stroke:none;" d="M1146 77L1147 78L1146 77z"/>
<path style="fill:#a3a3a3; stroke:none;" d="M1240 77L1241 78L1240 77z"/>
<path style="fill:#7a7a7a; stroke:none;" d="M785 78L786 79L785 78z"/>
<path style="fill:#646464; stroke:none;" d="M87 79L88 80L87 79z"/>
<path style="fill:#616161; stroke:none;" d="M1049 79L1050 80L1049 79z"/>
<path style="fill:#808080; stroke:none;" d="M1241 79L1242 80L1241 79z"/>
<path style="fill:#8a8a8a; stroke:none;" d="M1327 79L1328 80L1327 79z"/>
<path style="fill:#666666; stroke:none;" d="M1541 80L1542 81L1541 80z"/>
<path style="fill:#6d6d6d; stroke:none;" d="M1048 82L1049 83L1048 82z"/>
<path style="fill:#a9a9a9; stroke:none;" d="M334 83L335 84L334 83z"/>
<path style="fill:#979797; stroke:none;" d="M1330 84L1331 85L1330 84z"/>
<path style="fill:#8c8c8c; stroke:none;" d="M1622 84L1623 85L1622 84z"/>
<path style="fill:#848484; stroke:none;" d="M1047 85L1048 86L1047 85z"/>
<path style="fill:#949494; stroke:none;" d="M1143 85L1144 86L1143 85z"/>
<path style="fill:#5f5f5f; stroke:none;" d="M1538 85L1539 86L1538 85z"/>
<path style="fill:#888888; stroke:none;" d="M788 86L789 87L788 86z"/>
<path style="fill:#717171; stroke:none;" d="M1621 86L1622 87L1621 86z"/>
<path style="fill:#7d7d7d; stroke:none;" d="M332 88L333 89L332 88z"/>
<path style="fill:#656565; stroke:none;" d="M1142 88L1143 89L1142 88z"/>
<path style="fill:#a3a3a3; stroke:none;" d="M1246 88L1247 89L1246 88z"/>
<path style="fill:#848484; stroke:none;" d="M1247 90L1248 91L1247 90z"/>
<path style="fill:#5a5a5a; stroke:none;" d="M886 91L887 92L886 91z"/>
<path style="fill:#666666; stroke:none;" d="M1248 92L1249 93L1248 92z"/>
<path style="fill:#646464; stroke:none;" d="M1335 92L1336 93L1335 92z"/>
<path style="fill:#9f9f9f; stroke:none;" d="M1534 92L1535 93L1534 92z"/>
<path style="fill:#9d9d9d; stroke:none;" d="M1140 93L1141 94L1140 93z"/>
<path style="fill:#a3a3a3; stroke:none;" d="M72 94L73 95L72 94z"/>
<path style="fill:#919191; stroke:none;" d="M791 94L792 95L791 94z"/>
<path style="fill:#707070; stroke:none;" d="M887 94L888 95L887 94z"/>
<path style="fill:#646464; stroke:none;" d="M71 95L72 96L71 95z"/>
<path style="fill:#a0a0a0; stroke:none;" d="M329 95L330 96L329 95z"/>
<path style="fill:#a2a2a2; stroke:none;" d="M1616 95L1617 96L1616 95z"/>
<path style="fill:#727272; stroke:none;" d="M1139 96L1140 97L1139 96z"/>
<path style="fill:#585858; stroke:none;" d="M792 97L793 98L792 97z"/>
<path style="fill:#7c7c7c; stroke:none;" d="M1338 97L1339 98L1338 97z"/>
<path style="fill:#949494; stroke:none;" d="M1531 97L1532 98L1531 97z"/>
<path style="fill:#868686; stroke:none;" d="M1615 97L1616 98L1615 97z"/>
<path style="fill:#808080; stroke:none;" d="M68 99L69 100L68 99z"/>
<path style="fill:#646464; stroke:none;" d="M1614 99L1615 100L1614 99z"/>
<path style="fill:#7c7c7c; stroke:none;" d="M327 100L328 101L327 100z"/>
<path style="fill:#a5a5a5; stroke:none;" d="M1137 101L1138 102L1137 101z"/>
<path style="fill:#979797; stroke:none;" d="M1253 101L1254 102L1253 101z"/>
<path style="fill:#a1a1a1; stroke:none;" d="M794 102L795 103L794 102z"/>
<path style="fill:#858585; stroke:none;" d="M1341 102L1342 103L1341 102z"/>
<path style="fill:#8a8a8a; stroke:none;" d="M1528 102L1529 103L1528 102z"/>
<path style="fill:#747474; stroke:none;" d="M1254 103L1255 104L1254 103z"/>
<path style="fill:#7c7c7c; stroke:none;" d="M1136 104L1137 105L1136 104z"/>
<path style="fill:#6b6b6b; stroke:none;" d="M795 105L796 106L795 105z"/>
<path style="fill:#9c9c9c; stroke:none;" d="M324 107L325 108L324 107z"/>
<path style="fill:#989898; stroke:none;" d="M1344 107L1345 108L1344 107z"/>
<path style="fill:#7d7d7d; stroke:none;" d="M1525 107L1526 108L1525 107z"/>
<path style="fill:#6d6d6d; stroke:none;" d="M62 108L63 109L62 108z"/>
<path style="fill:#9c9c9c; stroke:none;" d="M1609 108L1610 109L1609 108z"/>
<path style="fill:#424242; stroke:none;" d="M530 110L530 111L585 111L697 111C684.117 105.594 661.038 110 647 110L530 110z"/>
<path style="fill:#7e7e7e; stroke:none;" d="M1608 110L1609 111L1608 110z"/>
<path style="fill:#7a7a7a; stroke:none;" d="M322 112L323 113L322 112z"/>
<path style="fill:#8b8b8b; stroke:none;" d="M1133 112L1134 113L1133 112z"/>
<path style="fill:#a5a5a5; stroke:none;" d="M1259 112L1260 113L1259 112z"/>
<path style="fill:#9f9f9f; stroke:none;" d="M1347 112L1348 113L1347 112z"/>
<path style="fill:#707070; stroke:none;" d="M1522 112L1523 113L1522 112z"/>
<path style="fill:#5f5f5f; stroke:none;" d="M1607 112L1608 113L1607 112z"/>
<path style="fill:#7d7d7d; stroke:none;" d="M798 113L799 114L798 113z"/>
<path style="fill:#8b8b8b; stroke:none;" d="M1260 114L1261 115L1260 114z"/>
<path style="fill:#878787; stroke:none;" d="M438 115L439 116L438 115z"/>
<path style="fill:#656565; stroke:none;" d="M536 115L537 116L536 115z"/>
<path style="fill:#595959; stroke:none;" d="M1132 115L1133 116L1132 115z"/>
<path style="fill:#636363; stroke:none;" d="M1349 115L1350 116L1349 115z"/>
<path style="fill:#9d9d9d; stroke:none;" d="M537 116L538 117L537 116z"/>
<path style="fill:#616161; stroke:none;" d="M1261 116L1262 117L1261 116z"/>
<path style="fill:#595959; stroke:none;" d="M320 117L321 118L320 117z"/>
<path style="fill:#5a5a5a; stroke:none;" d="M1519 117L1520 118L1519 117z"/>
<path style="fill:#a0a0a0; stroke:none;" d="M319 119L320 120L319 119z"/>
<path style="fill:#9f9f9f; stroke:none;" d="M443 119L444 120L443 119z"/>
<path style="fill:#7c7c7c; stroke:none;" d="M56 120L57 121L56 120z"/>
<path style="fill:#626262; stroke:none;" d="M444 120L445 121L444 120z"/>
<path style="fill:#818181; stroke:none;" d="M542 120L543 121L542 120z"/>
<path style="fill:#959595; stroke:none;" d="M1130 120L1131 121L1130 120z"/>
<path style="fill:#7a7a7a; stroke:none;" d="M1352 120L1353 121L1352 120z"/>
<path style="fill:#898989; stroke:none;" d="M801 121L802 122L801 121z"/>
<path style="fill:#989898; stroke:none;" d="M1602 121L1603 122L1602 121z"/>
<path style="fill:#696969; stroke:none;" d="M1129 123L1130 124L1129 123z"/>
<path style="fill:#7b7b7b; stroke:none;" d="M1601 123L1602 124L1601 123z"/>
<path style="fill:#9e9e9e; stroke:none;" d="M191 124L191 125L196 125L191 124z"/>
<path style="fill:#474747; stroke:none;" d="M196.667 124.333L197.333 124.667L196.667 124.333z"/>
<path style="fill:#8c8c8c; stroke:none;" d="M215 124L215 125L219 125L215 124z"/>
<path style="fill:#838383; stroke:none;" d="M317 124L318 125L317 124z"/>
<path style="fill:#848484; stroke:none;" d="M449 124L450 125L449 124z"/>
<path style="fill:#666666; stroke:none;" d="M547 124L548 125L547 124z"/>
<path style="fill:#c6c6c6; stroke:none;" d="M183 125L183 126L186 126L183 125z"/>
<path style="fill:#949494; stroke:none;" d="M227.667 125.333L228.333 125.667L227.667 125.333z"/>
<path style="fill:#969696; stroke:none;" d="M548 125L549 126L548 125z"/>
<path style="fill:#9c9c9c; stroke:none;" d="M1266 125L1267 126L1266 125z"/>
<path style="fill:#858585; stroke:none;" d="M1355 125L1356 126L1355 125z"/>
<path style="fill:#5e5e5e; stroke:none;" d="M1600 125L1601 126L1600 125z"/>
<path style="fill:#797979; stroke:none;" d="M180 126L181 127L180 126z"/>
<path style="fill:#9e9e9e; stroke:none;" d="M234.667 126.333L235.333 126.667L234.667 126.333z"/>
<path style="fill:#737373; stroke:none;" d="M176 127L177 128L176 127z"/>
<path style="fill:#bababa; stroke:none;" d="M240.667 127.333L241.333 127.667L240.667 127.333z"/>
<path style="fill:#808080; stroke:none;" d="M1267 127L1268 128L1267 127z"/>
<path style="fill:#636363; stroke:none;" d="M173 128L174 129L173 128z"/>
<path style="fill:#9a9a9a; stroke:none;" d="M454 128L455 129L454 128z"/>
<path style="fill:#a1a1a1; stroke:none;" d="M1127 128L1128 129L1127 128z"/>
<path style="fill:#6f6f6f; stroke:none;" d="M170 129L171 130L170 129z"/>
<path style="fill:#c2c2c2; stroke:none;" d="M249.667 129.333L250.333 129.667L249.667 129.333z"/>
<path style="fill:#646464; stroke:none;" d="M315 129L316 130L315 129z"/>
<path style="fill:#656565; stroke:none;" d="M455 129L456 130L455 129z"/>
<path style="fill:#808080; stroke:none;" d="M553 129L554 130L553 129z"/>
<path style="fill:#9c9c9c; stroke:none;" d="M804 129L805 130L804 129z"/>
<path style="fill:#5b5b5b; stroke:none;" d="M1268 129L1269 130L1268 129z"/>
<path style="fill:#999999; stroke:none;" d="M1512 129L1513 130L1512 129z"/>
<path style="fill:#939393; stroke:none;" d="M1358 130L1359 131L1358 130z"/>
<path style="fill:#a7a7a7; stroke:none;" d="M314 131L315 132L314 131z"/>
<path style="fill:#777777; stroke:none;" d="M1126 131L1127 132L1126 131z"/>
<path style="fill:#717171; stroke:none;" d="M164 132L165 133L164 132z"/>
<path style="fill:#676767; stroke:none;" d="M805 132L806 133L805 132z"/>
<path style="fill:#656565; stroke:none;" d="M263 133L264 134L263 133z"/>
<path style="fill:#838383; stroke:none;" d="M460 133L461 134L460 133z"/>
<path style="fill:#6e6e6e; stroke:none;" d="M558 133L559 134L558 133z"/>
<path style="fill:#595959; stroke:none;" d="M1360 133L1361 134L1360 133z"/>
<path style="fill:#727272; stroke:none;" d="M161 134L162 135L161 134z"/>
<path style="fill:#676767; stroke:none;" d="M266 134L267 135L266 134z"/>
<path style="fill:#999999; stroke:none;" d="M559 134L560 135L559 134z"/>
<path style="fill:#8f8f8f; stroke:none;" d="M1509 134L1510 135L1509 134z"/>
<path style="fill:#959595; stroke:none;" d="M1595 134L1596 135L1595 134z"/>
<path style="fill:#787878; stroke:none;" d="M269 135L270 136L269 135z"/>
<path style="fill:#8f8f8f; stroke:none;" d="M312 136L313 137L312 136z"/>
<path style="fill:#7d7d7d; stroke:none;" d="M1594 136L1595 137L1594 136z"/>
<path style="fill:#9f9f9f; stroke:none;" d="M465 137L466 138L465 137z"/>
<path style="fill:#a7a7a7; stroke:none;" d="M807 137L808 138L807 137z"/>
<path style="fill:#767676; stroke:none;" d="M277 138L278 139L277 138z"/>
<path style="fill:#686868; stroke:none;" d="M466 138L467 139L466 138z"/>
<path style="fill:#878787; stroke:none;" d="M564 138L565 139L564 138z"/>
<path style="fill:#949494; stroke:none;" d="M1273 138L1274 139L1273 138z"/>
<path style="fill:#6b6b6b; stroke:none;" d="M1363 138L1364 139L1363 138z"/>
<path style="fill:#616161; stroke:none;" d="M1593 138L1594 139L1593 138z"/>
<path style="fill:#868686; stroke:none;" d="M1123 139L1124 140L1123 139z"/>
<path style="fill:#828282; stroke:none;" d="M1506 139L1507 140L1506 139z"/>
<path style="fill:#878787; stroke:none;" d="M282 140L283 141L282 140z"/>
<path style="fill:#787878; stroke:none;" d="M808 140L809 141L808 140z"/>
<path style="fill:#767676; stroke:none;" d="M1274 140L1275 141L1274 140M310 141L311 142L310 141z"/>
<path style="fill:#9a9a9a; stroke:none;" d="M153 142L154 143L153 142z"/>
<path style="fill:#818181; stroke:none;" d="M471 142L472 143L471 142z"/>
<path style="fill:#727272; stroke:none;" d="M569 142L570 143L569 142z"/>
<path style="fill:#565656; stroke:none;" d="M1122 142L1123 143L1122 142z"/>
<path style="fill:#9c9c9c; stroke:none;" d="M570 143L571 144L570 143z"/>
<path style="fill:#747474; stroke:none;" d="M1366 143L1367 144L1366 143z"/>
<path style="fill:#848484; stroke:none;" d="M291 144L292 145L291 144z"/>
<path style="fill:#777777; stroke:none;" d="M1503 144L1504 145L1503 144z"/>
<path style="fill:#6b6b6b; stroke:none;" d="M293 145L294 146L293 145z"/>
<path style="fill:#616161; stroke:none;" d="M295 146L296 147L295 146z"/>
<path style="fill:#565656; stroke:none;" d="M297 147L298 148L297 147z"/>
<path style="fill:#696969; stroke:none;" d="M477 147L478 148L477 147z"/>
<path style="fill:#8c8c8c; stroke:none;" d="M575 147L576 148L575 147z"/>
<path style="fill:#949494; stroke:none;" d="M1120 147L1121 148L1120 147z"/>
<path style="fill:#969696; stroke:none;" d="M1588 147L1589 148L1588 147z"/>
<path style="fill:#a2a2a2; stroke:none;" d="M307 148L308 149L307 148z"/>
<path style="fill:#8a8a8a; stroke:none;" d="M811 148L812 149L811 148z"/>
<path style="fill:#858585; stroke:none;" d="M1369 148L1370 149L1369 148z"/>
<path style="fill:#6a6a6a; stroke:none;" d="M301 149L302 150L301 149z"/>
<path style="fill:#a6a6a6; stroke:none;" d="M1279 149L1280 150L1279 149z"/>
<path style="fill:#696969; stroke:none;" d="M1500 149L1501 150L1500 149z"/>
<path style="fill:#7e7e7e; stroke:none;" d="M1587 149L1588 150L1587 149z"/>
<path style="fill:#787878; stroke:none;" d="M303 150L304 151L303 150z"/>
<path style="fill:#696969; stroke:none;" d="M1119 150L1120 151L1119 150z"/>
<path style="fill:#a4a4a4; stroke:none;" d="M149 151L149 160L150 160L149 151z"/>
<path style="fill:#909090; stroke:none;" d="M305 151L306 152L305 151z"/>
<path style="fill:#939393; stroke:none;" d="M482 151L483 152L482 151z"/>
<path style="fill:#6a6a6a; stroke:none;" d="M580 151L581 152L580 151z"/>
<path style="fill:#8a8a8a; stroke:none;" d="M1280 151L1281 152L1280 151z"/>
<path style="fill:#616161; stroke:none;" d="M1586 151L1587 152L1586 151z"/>
<path style="fill:#5c5c5c; stroke:none;" d="M483 152L484 153L483 152z"/>
<path style="fill:#9f9f9f; stroke:none;" d="M581 152L582 153L581 152z"/>
<path style="fill:#6b6b6b; stroke:none;" d="M1281 153L1282 154L1281 153z"/>
<path style="fill:#939393; stroke:none;" d="M1372 153L1373 154L1372 153z"/>
<path style="fill:#5a5a5a; stroke:none;" d="M1497 154L1498 155L1497 154z"/>
<path style="fill:#a0a0a0; stroke:none;" d="M1117 155L1118 156L1117 155z"/>
<path style="fill:#797979; stroke:none;" d="M488 156L489 157L488 156z"/>
<path style="fill:#8f8f8f; stroke:none;" d="M586 156L587 157L586 156z"/>
<path style="fill:#9b9b9b; stroke:none;" d="M814 156L815 157L814 156z"/>
<path style="fill:#585858; stroke:none;" d="M1374 156L1375 157L1374 156z"/>
<path style="fill:#777777; stroke:none;" d="M1116 158L1117 159L1116 158z"/>
<path style="fill:#676767; stroke:none;" d="M815 159L816 160L815 159z"/>
<path style="fill:#939393; stroke:none;" d="M493 160L494 161L493 160z"/>
<path style="fill:#737373; stroke:none;" d="M591 160L592 161L591 160z"/>
<path style="fill:#979797; stroke:none;" d="M1581 160L1582 161L1581 160z"/>
<path style="fill:#656565; stroke:none;" d="M494 161L495 162L494 161z"/>
<path style="fill:#a4a4a4; stroke:none;" d="M592 161L593 162L592 161z"/>
<path style="fill:#676767; stroke:none;" d="M1377 161L1378 162L1377 161z"/>
<path style="fill:#9d9d9d; stroke:none;" d="M1493 161L1494 162L1493 161z"/>
<path style="fill:#606060; stroke:none;" d="M150 162L151 163L150 162z"/>
<path style="fill:#9f9f9f; stroke:none;" d="M1286 162L1287 163L1286 162z"/>
<path style="fill:#7d7d7d; stroke:none;" d="M1580 162L1581 163L1580 162z"/>
<path style="fill:#5a5a5a; stroke:none;" d="M596 164L597 165L596 164z"/>
<path style="fill:#a7a7a7; stroke:none;" d="M817 164L818 165L817 164z"/>
<path style="fill:#7e7e7e; stroke:none;" d="M1287 164L1288 165L1287 164z"/>
<path style="fill:#626262; stroke:none;" d="M1579 164L1580 165L1579 164z"/>
<path style="fill:#878787; stroke:none;" d="M499 165L500 166L499 165z"/>
<path style="fill:#8c8c8c; stroke:none;" d="M597 165L598 166L597 165z"/>
<path style="fill:#858585; stroke:none;" d="M1113 166L1114 167L1113 166z"/>
<path style="fill:#5c5c5c; stroke:none;" d="M1288 166L1289 167L1288 166z"/>
<path style="fill:#7a7a7a; stroke:none;" d="M1380 166L1381 167L1380 166z"/>
<path style="fill:#919191; stroke:none;" d="M1490 166L1491 167L1490 166z"/>
<path style="fill:#7c7c7c; stroke:none;" d="M818 167L819 168L818 167z"/>
<path style="fill:#6c6c6c; stroke:none;" d="M153 168L154 169L153 168z"/>
<path style="fill:#a0a0a0; stroke:none;" d="M504 169L505 170L504 169z"/>
<path style="fill:#767676; stroke:none;" d="M602 169L603 170L602 169z"/>
<path style="fill:#717171; stroke:none;" d="M505 170L506 171L505 170z"/>
<path style="fill:#a5a5a5; stroke:none;" d="M603 170L604 171L603 170z"/>
<path style="fill:#868686; stroke:none;" d="M1383 171L1384 172L1383 171z"/>
<path style="fill:#858585; stroke:none;" d="M1487 171L1488 172L1487 171z"/>
<path style="fill:#cfcfcf; stroke:none;" d="M49 172L49 176L50 176L49 172z"/>
<path style="fill:#797979; stroke:none;" d="M157 172L158 173L157 172z"/>
<path style="fill:#999999; stroke:none;" d="M1574 173L1575 174L1574 173z"/>
<path style="fill:#696969; stroke:none;" d="M160 174L161 175L160 174z"/>
<path style="fill:#919191; stroke:none;" d="M510 174L511 175L510 174z"/>
<path style="fill:#8f8f8f; stroke:none;" d="M608 174L609 175L608 174z"/>
<path style="fill:#bfbfbf; stroke:none;" d="M915 177L916 177C921.902 172.528 934.772 175 942 175C965.491 175 994.157 170.561 1017 176C1014.6 171.842 1001.64 174 997 174L937 174C932.05 174 916.186 171.463 915 177z"/>
<path style="fill:#949494; stroke:none;" d="M1110 174L1111 175L1110 174z"/>
<path style="fill:#5a5a5a; stroke:none;" d="M511 175L512 176L511 175z"/>
<path style="fill:#8a8a8a; stroke:none;" d="M821 175L822 176L821 175z"/>
<path style="fill:#000000; stroke:none;" d="M916 175C919.906 201.451 934.182 228.639 942.667 254C949.558 274.599 954.449 301.644 966 320C975.49 304.919 979.245 282.9 985.003 266C995.203 236.063 1008.87 205.815 1016 175L916 175z"/>
<path style="fill:#989898; stroke:none;" d="M1293 175L1294 176L1293 175z"/>
<path style="fill:#7e7e7e; stroke:none;" d="M1573 175L1574 176L1573 175z"/>
<path style="fill:#5b5b5b; stroke:none;" d="M164 176L165 177L164 176z"/>
<path style="fill:#989898; stroke:none;" d="M1386 176L1387 177L1386 176z"/>
<path style="fill:#717171; stroke:none;" d="M1484 176L1485 177L1484 176z"/>
<path style="fill:#777777; stroke:none;" d="M166 177L167 178L166 177z"/>
<path style="fill:#656565; stroke:none;" d="M1109 177L1110 178L1109 177z"/>
<path style="fill:#7a7a7a; stroke:none;" d="M1294 177L1295 178L1294 177z"/>
<path style="fill:#626262; stroke:none;" d="M1572 177L1573 178L1572 177z"/>
<path style="fill:#a5a5a5; stroke:none;" d="M168 178L169 179L168 178z"/>
<path style="fill:#717171; stroke:none;" d="M613 178L614 179L613 178z"/>
<path style="fill:#7c7c7c; stroke:none;" d="M516 179L517 180L516 179z"/>
<path style="fill:#a6a6a6; stroke:none;" d="M614 179L615 180L614 179z"/>
<path style="fill:#585858; stroke:none;" d="M1295 179L1296 180L1295 179z"/>
<path style="fill:#a7a7a7; stroke:none;" d="M176 181L177 182L176 181z"/>
<path style="fill:#6a6a6a; stroke:none;" d="M1481 181L1482 182L1481 181z"/>
<path style="fill:#969696; stroke:none;" d="M50 182L51 183L50 182z"/>
<path style="fill:#9f9f9f; stroke:none;" d="M1107 182L1108 183L1107 182z"/>
<path style="fill:#585858; stroke:none;" d="M183 183L184 184L183 183z"/>
<path style="fill:#9b9b9b; stroke:none;" d="M521 183L522 184L521 183z"/>
<path style="fill:#909090; stroke:none;" d="M619 183L620 184L619 183z"/>
<path style="fill:#9a9a9a; stroke:none;" d="M824 183L825 184L824 183z"/>
<path style="fill:#979797; stroke:none;" d="M186 184L187 185L186 184z"/>
<path style="fill:#656565; stroke:none;" d="M522 184L523 185L522 184z"/>
<path style="fill:#696969; stroke:none;" d="M1391 184L1392 185L1391 184z"/>
<path style="fill:#999999; stroke:none;" d="M190 185L191 186L190 185z"/>
<path style="fill:#777777; stroke:none;" d="M1106 185L1107 186L1106 185z"/>
<path style="fill:#696969; stroke:none;" d="M194 186L195 187L194 186z"/>
<path style="fill:#676767; stroke:none;" d="M825 186L826 187L825 186z"/>
<path style="fill:#5c5c5c; stroke:none;" d="M1478 186L1479 187L1478 186z"/>
<path style="fill:#999999; stroke:none;" d="M1567 186L1568 187L1567 186z"/>
<path style="fill:#919191; stroke:none;" d="M51 187L52 188L51 187z"/>
<path style="fill:#7c7c7c; stroke:none;" d="M198 187L199 188L198 187z"/>
<path style="fill:#747474; stroke:none;" d="M624 187L625 188L624 187z"/>
<path style="fill:#9b9b9b; stroke:none;" d="M202 188L203 189L202 188z"/>
<path style="fill:#868686; stroke:none;" d="M527 188L528 189L527 188z"/>
<path style="fill:#a8a8a8; stroke:none;" d="M625 188L626 189L625 188z"/>
<path style="fill:#919191; stroke:none;" d="M1300 188L1301 189L1300 188z"/>
<path style="fill:#818181; stroke:none;" d="M1566 188L1567 189L1566 188z"/>
<path style="fill:#696969; stroke:none;" d="M1641 188L1642 189L1641 188z"/>
<path style="fill:#7d7d7d; stroke:none;" d="M207 189L208 190L207 189z"/>
<path style="fill:#7c7c7c; stroke:none;" d="M1394 189L1395 190L1394 189z"/>
<path style="fill:#ffffff; stroke:none;" d="M1641 189C1620.81 223.564 1602.3 259.161 1582.58 294C1572.48 311.826 1556.29 332.331 1550.64 352C1545.81 368.816 1550 392.489 1550 410L1643 410L1642 256L1642 210L1641 189z"/>
<path style="fill:#a9a9a9; stroke:none;" d="M211 190L212 191L211 190z"/>
<path style="fill:#747474; stroke:none;" d="M1301 190L1302 191L1301 190z"/>
<path style="fill:#656565; stroke:none;" d="M1565 190L1566 191L1565 190z"/>
<path style="fill:#848484; stroke:none;" d="M52 191L53 192L52 191z"/>
<path style="fill:#989898; stroke:none;" d="M216 191L217 192L216 191z"/>
<path style="fill:#a7a7a7; stroke:none;" d="M827 191L828 192L827 191z"/>
<path style="fill:#a6a6a6; stroke:none;" d="M220 192L221 193L220 192z"/>
<path style="fill:#a2a2a2; stroke:none;" d="M532 192L533 193L532 192z"/>
<path style="fill:#919191; stroke:none;" d="M630 192L631 193L630 192z"/>
<path style="fill:#6e6e6e; stroke:none;" d="M533 193L534 194L533 193z"/>
<path style="fill:#858585; stroke:none;" d="M1103 193L1104 194L1103 193z"/>
<path style="fill:#ffffff; stroke:none;" d="M1227 193L1227 410L1321 410L1320.58 360L1303.31 328L1260.85 252L1238 211L1227 193z"/>
<path style="fill:#9d9d9d; stroke:none;" d="M1474 193L1475 194L1474 193z"/>
<path style="fill:#5e5e5e; stroke:none;" d="M229 194L230 195L229 194z"/>
<path style="fill:#787878; stroke:none;" d="M828 194L829 195L828 194z"/>
<path style="fill:#888888; stroke:none;" d="M1397 194L1398 195L1397 194z"/>
<path style="fill:#8a8a8a; stroke:none;" d="M233 195L234 196L233 195z"/>
<path style="fill:#606060; stroke:none;" d="M922 195L923 196L922 195z"/>
<path style="fill:#9d9d9d; stroke:none;" d="M237 196L238 197L237 196z"/>
<path style="fill:#767676; stroke:none;" d="M635 196L636 197L635 196z"/>
<path style="fill:#444444; stroke:none;" d="M1642 196L1642 201L1643 201L1642 196z"/>
<path style="fill:#a8a8a8; stroke:none;" d="M54 197L55 198L54 197z"/>
<path style="fill:#8a8a8a; stroke:none;" d="M241 197L242 198L241 197M538 197L539 198L538 197z"/>
<path style="fill:#858585; stroke:none;" d="M1636 197L1637 198L1636 197z"/>
<path style="fill:#686868; stroke:none;" d="M245 198L246 199L245 198z"/>
<path style="fill:#565656; stroke:none;" d="M539 198L540 199L539 198z"/>
<path style="fill:#707070; stroke:none;" d="M923 198L924 199L923 198z"/>
<path style="fill:#929292; stroke:none;" d="M1471 198L1472 199L1471 198z"/>
<path style="fill:#a1a1a1; stroke:none;" d="M1306 199L1307 200L1306 199z"/>
<path style="fill:#989898; stroke:none;" d="M1400 199L1401 200L1400 199z"/>
<path style="fill:#9e9e9e; stroke:none;" d="M1560 199L1561 200L1560 199z"/>
<path style="fill:#575757; stroke:none;" d="M55 200L56 201L55 200z"/>
<path style="fill:#595959; stroke:none;" d="M640 200L641 201L640 200z"/>
<path style="fill:#666666; stroke:none;" d="M1007 200L1008 201L1007 200z"/>
<path style="fill:#979797; stroke:none;" d="M256 201L257 202L256 201z"/>
<path style="fill:#949494; stroke:none;" d="M641 201L642 202L641 201z"/>
<path style="fill:#939393; stroke:none;" d="M1100 201L1101 202L1100 201z"/>
<path style="fill:#878787; stroke:none;" d="M1232 201L1233 202L1232 201z"/>
<path style="fill:#8b8b8b; stroke:none;" d="M1307 201L1308 202L1307 201z"/>
<path style="fill:#828282; stroke:none;" d="M1559 201L1560 202L1559 201z"/>
<path style="fill:#cbcbcb; stroke:none;" d="M1642 201L1642 298L1643 298L1643 231L1642 201z"/>
<path style="fill:#9a9a9a; stroke:none;" d="M56 202L57 203L56 202z"/>
<path style="fill:#737373; stroke:none;" d="M544 202L545 203L544 202z"/>
<path style="fill:#898989; stroke:none;" d="M831 202L832 203L831 202z"/>
<path style="fill:#5b5b5b; stroke:none;" d="M1402 202L1403 203L1402 202z"/>
<path style="fill:#929292; stroke:none;" d="M263 203L264 204L263 203z"/>
<path style="fill:#797979; stroke:none;" d="M1006 203L1007 204L1006 203z"/>
<path style="fill:#696969; stroke:none;" d="M1308 203L1309 204L1308 203z"/>
<path style="fill:#848484; stroke:none;" d="M1468 203L1469 204L1468 203z"/>
<path style="fill:#656565; stroke:none;" d="M1558 203L1559 204L1558 203z"/>
<path style="fill:#696969; stroke:none;" d="M1099 204L1100 205L1099 204z"/>
<path style="fill:#7a7a7a; stroke:none;" d="M646 205L647 206L646 205z"/>
<path style="fill:#939393; stroke:none;" d="M549 206L550 207L549 206z"/>
<path style="fill:#848484; stroke:none;" d="M1631 206L1632 207L1631 206z"/>
<path style="fill:#575757; stroke:none;" d="M276 207L277 208L276 207z"/>
<path style="fill:#5a5a5a; stroke:none;" d="M550 207L551 208L550 207z"/>
<path style="fill:#6c6c6c; stroke:none;" d="M1405 207L1406 208L1405 207z"/>
<path style="fill:#969696; stroke:none;" d="M59 208L60 209L59 208z"/>
<path style="fill:#757575; stroke:none;" d="M1465 208L1466 209L1465 208z"/>
<path style="fill:#626262; stroke:none;" d="M651 209L652 210L651 209z"/>
<path style="fill:#9f9f9f; stroke:none;" d="M1097 209L1098 210L1097 209z"/>
<path style="fill:#828282; stroke:none;" d="M652 210L653 211L652 210z"/>
<path style="fill:#9a9a9a; stroke:none;" d="M834 210L835 211L834 210z"/>
<path style="fill:#858585; stroke:none;" d="M1237 210L1238 211L1237 210z"/>
<path style="fill:#6d6d6d; stroke:none;" d="M287 211L288 212L287 211z"/>
<path style="fill:#b4b4b4; stroke:none;" d="M555.333 211.667L555.667 212.333L555.333 211.667z"/>
<path style="fill:#777777; stroke:none;" d="M1096 212L1097 213L1096 212z"/>
<path style="fill:#9f9f9f; stroke:none;" d="M1313 212L1314 213L1313 212z"/>
<path style="fill:#7c7c7c; stroke:none;" d="M1408 212L1409 213L1408 212z"/>
<path style="fill:#9f9f9f; stroke:none;" d="M1553 212L1554 213L1553 212z"/>
<path style="fill:#585858; stroke:none;" d="M62 213L63 214L62 213z"/>
<path style="fill:#595959; stroke:none;" d="M292 213L293 214L292 213z"/>
<path style="fill:#656565; stroke:none;" d="M835 213L836 214L835 213M1462 213L1463 214L1462 213z"/>
<path style="fill:#6d6d6d; stroke:none;" d="M294 214L295 215L294 214z"/>
<path style="fill:#838383; stroke:none;" d="M1314 214L1315 215L1314 214z"/>
<path style="fill:#848484; stroke:none;" d="M1552 214L1553 215L1552 214z"/>
<path style="fill:#828282; stroke:none;" d="M296 215L297 216L296 215z"/>
<path style="fill:#838383; stroke:none;" d="M1626 215L1627 216L1626 215z"/>
<path style="fill:#8f8f8f; stroke:none;" d="M298 216L299 217L298 216z"/>
<path style="fill:#626262; stroke:none;" d="M1315 216L1316 217L1315 216z"/>
<path style="fill:#676767; stroke:none;" d="M1551 216L1552 217L1551 216z"/>
<path style="fill:#5f5f5f; stroke:none;" d="M65 217L66 218L65 217z"/>
<path style="fill:#606060; stroke:none;" d="M300 217L301 218L300 217z"/>
<path style="fill:#898989; stroke:none;" d="M1411 217L1412 218L1411 217z"/>
<path style="fill:#8b8b8b; stroke:none;" d="M66 218L67 219L66 218z"/>
<path style="fill:#a7a7a7; stroke:none;" d="M837 218L838 219L837 218z"/>
<path style="fill:#8f8f8f; stroke:none;" d="M1242 219L1243 220L1242 219z"/>
<path style="fill:#9d9d9d; stroke:none;" d="M305 220L306 221L305 220z"/>
<path style="fill:#848484; stroke:none;" d="M1093 220L1094 221L1093 220z"/>
<path style="fill:#9d9d9d; stroke:none;" d="M1458 220L1459 221L1458 220z"/>
<path style="fill:#787878; stroke:none;" d="M838 221L839 222L838 221z"/>
<path style="fill:#5d5d5d; stroke:none;" d="M931 221L932 222L931 221z"/>
<path style="fill:#9b9b9b; stroke:none;" d="M1414 222L1415 223L1414 222z"/>
<path style="fill:#818181; stroke:none;" d="M1547 223L1548 224L1547 223z"/>
<path style="fill:#707070; stroke:none;" d="M932 224L933 225L932 224z"/>
<path style="fill:#8c8c8c; stroke:none;" d="M1621 224L1622 225L1621 224z"/>
<path style="fill:#979797; stroke:none;" d="M1320 225L1321 226L1320 225z"/>
<path style="fill:#585858; stroke:none;" d="M1416 225L1417 226L1416 225z"/>
<path style="fill:#909090; stroke:none;" d="M1455 225L1456 226L1455 225z"/>
<path style="fill:#7b7b7b; stroke:none;" d="M314 226L315 227L314 226z"/>
<path style="fill:#5e5e5e; stroke:none;" d="M1246 226L1247 227L1246 226z"/>
<path style="fill:#929292; stroke:none;" d="M1090 228L1091 229L1090 228z"/>
<path style="fill:#909090; stroke:none;" d="M1247 228L1248 229L1247 228z"/>
<path style="fill:#848484; stroke:none;" d="M1544 228L1545 229L1544 228z"/>
<path style="fill:#898989; stroke:none;" d="M841 229L842 230L841 229z"/>
<path style="fill:#6a6a6a; stroke:none;" d="M997 229L998 230L997 229z"/>
<path style="fill:#888888; stroke:none;" d="M319 230L320 231L319 230z"/>
<path style="fill:#838383; stroke:none;" d="M1323 230L1324 231L1323 230z"/>
<path style="fill:#676767; stroke:none;" d="M1419 230L1420 231L1419 230z"/>
<path style="fill:#808080; stroke:none;" d="M1452 230L1453 231L1452 230z"/>
<path style="fill:#626262; stroke:none;" d="M1089 231L1090 232L1089 231z"/>
<path style="fill:#5d5d5d; stroke:none;" d="M1617 231L1618 232L1617 231z"/>
<path style="fill:#777777; stroke:none;" d="M996 232L997 233L996 232z"/>
<path style="fill:#949494; stroke:none;" d="M81 233L82 234L81 233z"/>
<path style="fill:#8e8e8e; stroke:none;" d="M1541 233L1542 234L1541 233z"/>
<path style="fill:#909090; stroke:none;" d="M1616 233L1617 234L1616 233z"/>
<path style="fill:#6b6b6b; stroke:none;" d="M82 234L83 235L82 234z"/>
<path style="fill:#878787; stroke:none;" d="M995 235L996 236L995 235z"/>
<path style="fill:#5d5d5d; stroke:none;" d="M1251 235L1252 236L1251 235z"/>
<path style="fill:#6c6c6c; stroke:none;" d="M1326 235L1327 236L1326 235z"/>
<path style="fill:#757575; stroke:none;" d="M1422 235L1423 236L1422 235z"/>
<path style="fill:#707070; stroke:none;" d="M1449 235L1450 236L1449 235z"/>
<path style="fill:#9e9e9e; stroke:none;" d="M1087 236L1088 237L1087 236z"/>
<path style="fill:#909090; stroke:none;" d="M86 237L87 238L86 237z"/>
<path style="fill:#9a9a9a; stroke:none;" d="M844 237L845 238L844 237z"/>
<path style="fill:#8f8f8f; stroke:none;" d="M1252 237L1253 238L1252 237z"/>
<path style="fill:#9d9d9d; stroke:none;" d="M1328 238L1329 239L1328 238z"/>
<path style="fill:#929292; stroke:none;" d="M1538 238L1539 239L1538 238z"/>
<path style="fill:#737373; stroke:none;" d="M1086 239L1087 240L1086 239z"/>
<path style="fill:#606060; stroke:none;" d="M90 240L91 241L90 240z"/>
<path style="fill:#626262; stroke:none;" d="M845 240L846 241L845 240z"/>
<path style="fill:#888888; stroke:none;" d="M1425 240L1426 241L1425 240z"/>
<path style="fill:#5a5a5a; stroke:none;" d="M1446 240L1447 241L1446 240z"/>
<path style="fill:#5c5c5c; stroke:none;" d="M1612 240L1613 241L1612 240z"/>
<path style="fill:#989898; stroke:none;" d="M1611 242L1612 243L1611 242z"/>
<path style="fill:#8d8d8d; stroke:none;" d="M1331 243L1332 244L1331 243z"/>
<path style="fill:#979797; stroke:none;" d="M1535 243L1536 244L1535 243z"/>
<path style="fill:#a8a8a8; stroke:none;" d="M1084 244L1085 245L1084 244z"/>
<path style="fill:#707070; stroke:none;" d="M1256 244L1257 245L1256 244z"/>
<path style="fill:#a7a7a7; stroke:none;" d="M847 245L848 246L847 245z"/>
<path style="fill:#8f8f8f; stroke:none;" d="M1428 245L1429 246L1428 245z"/>
<path style="fill:#626262; stroke:none;" d="M100 246L101 247L100 246z"/>
<path style="fill:#989898; stroke:none;" d="M1257 246L1258 247L1257 246z"/>
<path style="fill:#6d6d6d; stroke:none;" d="M102 247L103 248L102 247z"/>
<path style="fill:#767676; stroke:none;" d="M336 247L337 248L336 247z"/>
<path style="fill:#585858; stroke:none;" d="M940 247L941 248L940 247z"/>
<path style="fill:#848484; stroke:none;" d="M1083 247L1084 248L1083 247z"/>
<path style="fill:#8f8f8f; stroke:none;" d="M1442 247L1443 248L1442 247z"/>
<path style="fill:#595959; stroke:none;" d="M104 248L105 249L104 248z"/>
<path style="fill:#787878; stroke:none;" d="M848 248L849 249L848 248z"/>
<path style="fill:#747474; stroke:none;" d="M1334 248L1335 249L1334 248z"/>
<path style="fill:#9e9e9e; stroke:none;" d="M1532 248L1533 249L1532 248z"/>
<path style="fill:#6d6d6d; stroke:none;" d="M1607 249L1608 250L1607 249z"/>
<path style="fill:#a1a1a1; stroke:none;" d="M338 250L339 251L338 250z"/>
<path style="fill:#6c6c6c; stroke:none;" d="M941 250L942 251L941 250z"/>
<path style="fill:#9e9e9e; stroke:none;" d="M1431 250L1432 251L1431 250z"/>
<path style="fill:#626262; stroke:none;" d="M1531 250L1532 251L1531 250z"/>
<path style="fill:#6f6f6f; stroke:none;" d="M111 251L112 252L111 251z"/>
<path style="fill:#a9a9a9; stroke:none;" d="M1336 251L1337 252L1336 251z"/>
<path style="fill:#9e9e9e; stroke:none;" d="M1606 251L1607 252L1606 251z"/>
<path style="fill:#848484; stroke:none;" d="M1439 252L1440 253L1439 252z"/>
<path style="fill:#8a8a8a; stroke:none;" d="M340 253L341 254L340 253z"/>
<path style="fill:#7b7b7b; stroke:none;" d="M942 253L943 254L942 253z"/>
<path style="fill:#787878; stroke:none;" d="M1261 253L1262 254L1261 253z"/>
<path style="fill:#565656; stroke:none;" d="M1337 253L1338 254L1337 253z"/>
<path style="fill:#646464; stroke:none;" d="M1433 253L1434 254L1433 253z"/>
<path style="fill:#a5a5a5; stroke:none;" d="M1529 253L1530 254L1529 253z"/>
<path style="fill:#656565; stroke:none;" d="M119 254L120 255L119 254z"/>
<path style="fill:#6f6f6f; stroke:none;" d="M122 255L123 256L122 255z"/>
<path style="fill:#919191; stroke:none;" d="M1080 255L1081 256L1080 255z"/>
<path style="fill:#676767; stroke:none;" d="M1528 255L1529 256L1528 255z"/>
<path style="fill:#6d6d6d; stroke:none;" d="M125 256L126 257L125 256z"/>
<path style="fill:#898989; stroke:none;" d="M851 256L852 257L851 256z"/>
<path style="fill:#939393; stroke:none;" d="M1339 256L1340 257L1339 256z"/>
<path style="fill:#747474; stroke:none;" d="M128 257L129 258L128 257z"/>
<path style="fill:#777777; stroke:none;" d="M1436 257L1437 258L1436 257z"/>
<path style="fill:#606060; stroke:none;" d="M1079 258L1080 259L1079 258z"/>
<path style="fill:#a9a9a9; stroke:none;" d="M1526 258L1527 259L1526 258z"/>
<path style="fill:#747474; stroke:none;" d="M1602 258L1603 259L1602 258z"/>
<path style="fill:#c4c4c4; stroke:none;" d="M138.667 260.333L139.333 260.667L138.667 260.333z"/>
<path style="fill:#727272; stroke:none;" d="M1525 260L1526 261L1525 260z"/>
<path style="fill:#616161; stroke:none;" d="M986 261L987 262L986 261z"/>
<path style="fill:#818181; stroke:none;" d="M1342 261L1343 262L1342 261z"/>
<path style="fill:#c7c7c7; stroke:none;" d="M145.667 262.333L146.333 262.667L145.667 262.333z"/>
<path style="fill:#797979; stroke:none;" d="M1266 262L1267 263L1266 262z"/>
<path style="fill:#9d9d9d; stroke:none;" d="M1077 263L1078 264L1077 263z"/>
<path style="fill:#9a9a9a; stroke:none;" d="M854 264L855 265L854 264z"/>
<path style="fill:#6d6d6d; stroke:none;" d="M985 264L986 265L985 264z"/>
<path style="fill:#757575; stroke:none;" d="M1522 265L1523 266L1522 265z"/>
<path style="fill:#727272; stroke:none;" d="M1076 266L1077 267L1076 266z"/>
<path style="fill:#686868; stroke:none;" d="M1345 266L1346 267L1345 266z"/>
<path style="fill:#5b5b5b; stroke:none;" d="M165 267L166 268L165 267z"/>
<path style="fill:#626262; stroke:none;" d="M855 267L856 268L855 267z"/>
<path style="fill:#7c7c7c; stroke:none;" d="M984 267L985 268L984 267z"/>
<path style="fill:#7a7a7a; stroke:none;" d="M1597 267L1598 268L1597 267z"/>
<path style="fill:#5b5b5b; stroke:none;" d="M174 269L175 270L174 269z"/>
<path style="fill:#5c5c5c; stroke:none;" d="M1270 269L1271 270L1270 269z"/>
<path style="fill:#9d9d9d; stroke:none;" d="M1347 269L1348 270L1347 269z"/>
<path style="fill:#7a7a7a; stroke:none;" d="M1519 270L1520 271L1519 270z"/>
<path style="fill:#bdbdbd; stroke:none;" d="M183.667 271.333L184.333 271.667L183.667 271.333z"/>
<path style="fill:#a8a8a8; stroke:none;" d="M1074 271L1075 272L1074 271z"/>
<path style="fill:#8b8b8b; stroke:none;" d="M1271 271L1272 272L1271 271z"/>
<path style="fill:#bdbdbd; stroke:none;" d="M187.667 272.333L188.333 272.667L187.667 272.333z"/>
<path style="fill:#a6a6a6; stroke:none;" d="M857 272L858 273L857 272z"/>
<path style="fill:#828282; stroke:none;" d="M1073 274L1074 275L1073 274z"/>
<path style="fill:#8b8b8b; stroke:none;" d="M1350 274L1351 275L1350 274z"/>
<path style="fill:#787878; stroke:none;" d="M858 275L859 276L858 275z"/>
<path style="fill:#818181; stroke:none;" d="M1516 275L1517 276L1516 275z"/>
<path style="fill:#565656; stroke:none;" d="M203 276L204 277L203 276z"/>
<path style="fill:#5c5c5c; stroke:none;" d="M950 276L951 277L950 276z"/>
<path style="fill:#848484; stroke:none;" d="M1592 276L1593 277L1592 276z"/>
<path style="fill:#696969; stroke:none;" d="M1275 278L1276 279L1275 278z"/>
<path style="fill:#a8a8a8; stroke:none;" d="M583 279L584 280L583 279z"/>
<path style="fill:#676767; stroke:none;" d="M951 279L952 280L951 279z"/>
<path style="fill:#747474; stroke:none;" d="M1353 279L1354 280L1353 279z"/>
<path style="fill:#5b5b5b; stroke:none;" d="M217 280L218 281L217 280z"/>
<path style="fill:#a7a7a7; stroke:none;" d="M582 280L583 281L582 280z"/>
<path style="fill:#929292; stroke:none;" d="M1276 280L1277 281L1276 280z"/>
<path style="fill:#868686; stroke:none;" d="M1513 280L1514 281L1513 280z"/>
<path style="fill:#a5a5a5; stroke:none;" d="M580 282L581 283L580 282z"/>
<path style="fill:#767676; stroke:none;" d="M952 282L953 283L952 282z"/>
<path style="fill:#919191; stroke:none;" d="M1070 282L1071 283L1070 282z"/>
<path style="fill:#a9a9a9; stroke:none;" d="M1355 282L1356 283L1355 282z"/>
<path style="fill:#585858; stroke:none;" d="M226 283L227 284L226 283z"/>
<path style="fill:#a9a9a9; stroke:none;" d="M579 283L580 284L579 283z"/>
<path style="fill:#898989; stroke:none;" d="M861 283L862 284L861 283z"/>
<path style="fill:#5f5f5f; stroke:none;" d="M1588 283L1589 284L1588 283z"/>
<path style="fill:#575757; stroke:none;" d="M482 284L483 285L482 284z"/>
<path style="fill:#a1a1a1; stroke:none;" d="M578 284L579 285L578 284z"/>
<path style="fill:#5e5e5e; stroke:none;" d="M1356 284L1357 285L1356 284z"/>
<path style="fill:#a1a1a1; stroke:none;" d="M577 285L578 286L577 285z"/>
<path style="fill:#616161; stroke:none;" d="M1069 285L1070 286L1069 285z"/>
<path style="fill:#8f8f8f; stroke:none;" d="M1510 285L1511 286L1510 285M1587 285L1588 286L1587 285z"/>
<path style="fill:#5c5c5c; stroke:none;" d="M480 286L481 287L480 286z"/>
<path style="fill:#9e9e9e; stroke:none;" d="M576 286L577 287L576 286z"/>
<path style="fill:#8c8c8c; stroke:none;" d="M236 287L237 288L236 287z"/>
<path style="fill:#9e9e9e; stroke:none;" d="M575 287L576 288L575 287z"/>
<path style="fill:#757575; stroke:none;" d="M1280 287L1281 288L1280 287z"/>
<path style="fill:#8f8f8f; stroke:none;" d="M1358 287L1359 288L1358 287z"/>
<path style="fill:#939393; stroke:none;" d="M238 288L239 289L238 288z"/>
<path style="fill:#606060; stroke:none;" d="M478 288L479 289L478 288z"/>
<path style="fill:#9c9c9c; stroke:none;" d="M574 288L575 289L574 288z"/>
<path style="fill:#656565; stroke:none;" d="M477 289L478 290L477 289z"/>
<path style="fill:#9d9d9d; stroke:none;" d="M573 289L574 290L573 289z"/>
<path style="fill:#585858; stroke:none;" d="M241 290L242 291L241 290z"/>
<path style="fill:#656565; stroke:none;" d="M476 290L477 291L476 290z"/>
<path style="fill:#9a9a9a; stroke:none;" d="M572 290L573 291L572 290z"/>
<path style="fill:#9d9d9d; stroke:none;" d="M1067 290L1068 291L1067 290z"/>
<path style="fill:#949494; stroke:none;" d="M1507 290L1508 291L1507 290z"/>
<path style="fill:#656565; stroke:none;" d="M475 291L476 292L475 291z"/>
<path style="fill:#9b9b9b; stroke:none;" d="M571 291L572 292L571 291z"/>
<path style="fill:#969696; stroke:none;" d="M864 291L865 292L864 291z"/>
<path style="fill:#6b6b6b; stroke:none;" d="M474 292L475 293L474 292z"/>
<path style="fill:#969696; stroke:none;" d="M570 292L571 293L570 292z"/>
<path style="fill:#818181; stroke:none;" d="M1361 292L1362 293L1361 292z"/>
<path style="fill:#6a6a6a; stroke:none;" d="M1583 292L1584 293L1583 292z"/>
<path style="fill:#838383; stroke:none;" d="M245 293L246 294L245 293z"/>
<path style="fill:#6f6f6f; stroke:none;" d="M473 293L474 294L473 293z"/>
<path style="fill:#959595; stroke:none;" d="M569 293L570 294L569 293z"/>
<path style="fill:#737373; stroke:none;" d="M1066 293L1067 294L1066 293z"/>
<path style="fill:#959595; stroke:none;" d="M246 294L247 295L246 294z"/>
<path style="fill:#6b6b6b; stroke:none;" d="M472 294L473 295L472 294z"/>
<path style="fill:#9a9a9a; stroke:none;" d="M568 294L569 295L568 294z"/>
<path style="fill:#626262; stroke:none;" d="M865 294L866 295L865 294z"/>
<path style="fill:#9b9b9b; stroke:none;" d="M1582 294L1583 295L1582 294z"/>
<path style="fill:#6b6b6b; stroke:none;" d="M471 295L472 296L471 295z"/>
<path style="fill:#999999; stroke:none;" d="M567 295L568 296L567 295z"/>
<path style="fill:#9b9b9b; stroke:none;" d="M1504 295L1505 296L1504 295z"/>
<path style="fill:#797979; stroke:none;" d="M470 296L471 297L470 296z"/>
<path style="fill:#919191; stroke:none;" d="M566 296L567 297L566 296z"/>
<path style="fill:#565656; stroke:none;" d="M974 296L975 297L974 296z"/>
<path style="fill:#7c7c7c; stroke:none;" d="M1285 296L1286 297L1285 296z"/>
<path style="fill:#727272; stroke:none;" d="M469 297L470 298L469 297z"/>
<path style="fill:#8f8f8f; stroke:none;" d="M565 297L566 298L565 297z"/>
<path style="fill:#636363; stroke:none;" d="M1364 297L1365 298L1364 297z"/>
<path style="fill:#5b5b5b; stroke:none;" d="M1503 297L1504 298L1503 297z"/>
<path style="fill:#a2a2a2; stroke:none;" d="M249 298L250 299L249 298z"/>
<path style="fill:#7c7c7c; stroke:none;" d="M468 298L469 299L468 298z"/>
<path style="fill:#8c8c8c; stroke:none;" d="M564 298L565 299L564 298z"/>
<path style="fill:#a8a8a8; stroke:none;" d="M1064 298L1065 299L1064 298z"/>
<path style="fill:#808080; stroke:none;" d="M467 299L468 300L467 299z"/>
<path style="fill:#8c8c8c; stroke:none;" d="M563 299L564 300L563 299z"/>
<path style="fill:#a7a7a7; stroke:none;" d="M867 299L868 300L867 299z"/>
<path style="fill:#616161; stroke:none;" d="M973 299L974 300L973 299z"/>
<path style="fill:#808080; stroke:none;" d="M466 300L467 301L466 300z"/>
<path style="fill:#8c8c8c; stroke:none;" d="M562 300L563 301L562 300z"/>
<path style="fill:#9d9d9d; stroke:none;" d="M1366 300L1367 301L1366 300z"/>
<path style="fill:#a3a3a3; stroke:none;" d="M1501 300L1502 301L1501 300z"/>
<path style="fill:#828282; stroke:none;" d="M465 301L466 302L465 301z"/>
<path style="fill:#898989; stroke:none;" d="M561 301L562 302L561 301z"/>
<path style="fill:#818181; stroke:none;" d="M1063 301L1064 302L1063 301z"/>
<path style="fill:#787878; stroke:none;" d="M1578 301L1579 302L1578 301z"/>
<path style="fill:#858585; stroke:none;" d="M464 302L465 303L464 302z"/>
<path style="fill:#868686; stroke:none;" d="M560 302L561 303L560 302z"/>
<path style="fill:#787878; stroke:none;" d="M868 302L869 303L868 302z"/>
<path style="fill:#727272; stroke:none;" d="M972 302L973 303L972 302z"/>
<path style="fill:#5f5f5f; stroke:none;" d="M1500 302L1501 303L1500 302z"/>
<path style="fill:#8e8e8e; stroke:none;" d="M75 303L76 304L75 303z"/>
<path style="fill:#858585; stroke:none;" d="M463 303L464 304L463 303z"/>
<path style="fill:#868686; stroke:none;" d="M559 303L560 304L559 303z"/>
<path style="fill:#575757; stroke:none;" d="M1289 303L1290 304L1289 303z"/>
<path style="fill:#636363; stroke:none;" d="M251 304L252 305L251 304z"/>
<path style="fill:#858585; stroke:none;" d="M462 304L463 305L462 304z"/>
<path style="fill:#898989; stroke:none;" d="M558 304L559 305L558 304z"/>
<path style="fill:#8b8b8b; stroke:none;" d="M461 305L462 306L461 305z"/>
<path style="fill:#828282; stroke:none;" d="M557 305L558 306L557 305z"/>
<path style="fill:#7d7d7d; stroke:none;" d="M971 305L972 306L971 305z"/>
<path style="fill:#888888; stroke:none;" d="M1290 305L1291 306L1290 305z"/>
<path style="fill:#8b8b8b; stroke:none;" d="M1369 305L1370 306L1369 305z"/>
<path style="fill:#a5a5a5; stroke:none;" d="M1498 305L1499 306L1498 305z"/>
<path style="fill:#858585; stroke:none;" d="M460 306L461 307L460 306z"/>
<path style="fill:#878787; stroke:none;" d="M556 306L557 307L556 306z"/>
<path style="fill:#888888; stroke:none;" d="M459 307L460 308L459 307z"/>
<path style="fill:#858585; stroke:none;" d="M555 307L556 308L555 307z"/>
<path style="fill:#686868; stroke:none;" d="M1497 307L1498 308L1497 307z"/>
<path style="fill:#888888; stroke:none;" d="M458 308L459 309L458 308z"/>
<path style="fill:#7d7d7d; stroke:none;" d="M554 308L555 309L554 308z"/>
<path style="fill:#656565; stroke:none;" d="M961 308L962 309L961 308z"/>
<path style="fill:#959595; stroke:none;" d="M457 309L458 310L457 309z"/>
<path style="fill:#7a7a7a; stroke:none;" d="M553 309L554 310L553 309z"/>
<path style="fill:#8f8f8f; stroke:none;" d="M1060 309L1061 310L1060 309z"/>
<path style="fill:#9a9a9a; stroke:none;" d="M456 310L457 311L456 310z"/>
<path style="fill:#777777; stroke:none;" d="M552 310L553 311L552 310z"/>
<path style="fill:#8a8a8a; stroke:none;" d="M871 310L872 311L871 310z"/>
<path style="fill:#747474; stroke:none;" d="M1372 310L1373 311L1372 310z"/>
<path style="fill:#828282; stroke:none;" d="M1573 310L1574 311L1573 310z"/>
<path style="fill:#9a9a9a; stroke:none;" d="M455 311L456 312L455 311z"/>
<path style="fill:#7a7a7a; stroke:none;" d="M551 311L552 312L551 311z"/>
<path style="fill:#717171; stroke:none;" d="M962 311L963 312L962 311z"/>
<path style="fill:#888888; stroke:none;" d="M71 312L72 313L71 312z"/>
<path style="fill:#9c9c9c; stroke:none;" d="M454 312L455 313L454 312z"/>
<path style="fill:#767676; stroke:none;" d="M550 312L551 313L550 312z"/>
<path style="fill:#5f5f5f; stroke:none;" d="M1059 312L1060 313L1059 312z"/>
<path style="fill:#676767; stroke:none;" d="M1294 312L1295 313L1294 312z"/>
<path style="fill:#6f6f6f; stroke:none;" d="M1494 312L1495 313L1494 312z"/>
<path style="fill:#a1a1a1; stroke:none;" d="M94 313L95 314L94 313z"/>
<path style="fill:#6f6f6f; stroke:none;" d="M351.333 313.667L351.667 314.333L351.333 313.667z"/>
<path style="fill:#9c9c9c; stroke:none;" d="M453 313L454 314L453 313z"/>
<path style="fill:#777777; stroke:none;" d="M549 313L550 314L549 313z"/>
<path style="fill:#a7a7a7; stroke:none;" d="M1374 313L1375 314L1374 313z"/>
<path style="fill:#929292; stroke:none;" d="M96 314L97 315L96 314z"/>
<path style="fill:#c9c9c9; stroke:none;" d="M251.333 314.667L251.667 315.333L251.333 314.667z"/>
<path style="fill:#a0a0a0; stroke:none;" d="M452 314L453 315L452 314z"/>
<path style="fill:#727272; stroke:none;" d="M548 314L549 315L548 314z"/>
<path style="fill:#939393; stroke:none;" d="M1295 314L1296 315L1295 314z"/>
<path style="fill:#a3a3a3; stroke:none;" d="M98 315L99 316L98 315z"/>
<path style="fill:#9c9c9c; stroke:none;" d="M451 315L452 316L451 315z"/>
<path style="fill:#757575; stroke:none;" d="M547 315L548 316L547 315z"/>
<path style="fill:#a7a7a7; stroke:none;" d="M100 316L101 317L100 316z"/>
<path style="fill:#a1a1a1; stroke:none;" d="M450 316L451 317L450 316z"/>
<path style="fill:#737373; stroke:none;" d="M546 316L547 317L546 316z"/>
<path style="fill:#5d5d5d; stroke:none;" d="M250 317L251 318L250 317z"/>
<path style="fill:#6c6c6c; stroke:none;" d="M545 317L546 318L545 317z"/>
<path style="fill:#9d9d9d; stroke:none;" d="M1057 317L1058 318L1057 317z"/>
<path style="fill:#747474; stroke:none;" d="M1491 317L1492 318L1491 317z"/>
<path style="fill:#595959; stroke:none;" d="M1569 317L1570 318L1569 317z"/>
<path style="fill:#c6c6c6; stroke:none;" d="M350 318L350 321L351 321L350 318z"/>
<path style="fill:#a1a1a1; stroke:none;" d="M448 318L449 319L448 318z"/>
<path style="fill:#727272; stroke:none;" d="M544 318L545 319L544 318z"/>
<path style="fill:#969696; stroke:none;" d="M874 318L875 319L874 318z"/>
<path style="fill:#8f8f8f; stroke:none;" d="M1377 318L1378 319L1377 318z"/>
<path style="fill:#5d5d5d; stroke:none;" d="M107 319L108 320L107 319z"/>
<path style="fill:#696969; stroke:none;" d="M543 319L544 320L543 319z"/>
<path style="fill:#8d8d8d; stroke:none;" d="M1568 319L1569 320L1568 319z"/>
<path style="fill:#9f9f9f; stroke:none;" d="M109 320L110 321L109 320z"/>
<path style="fill:#666666; stroke:none;" d="M542 320L543 321L542 320z"/>
<path style="fill:#a8a8a8; stroke:none;" d="M965.667 320.333L966.333 320.667L965.667 320.333z"/>
<path style="fill:#707070; stroke:none;" d="M1056 320L1057 321L1056 320z"/>
<path style="fill:#808080; stroke:none;" d="M67 321L68 322L67 321z"/>
<path style="fill:#666666; stroke:none;" d="M541 321L542 322L541 321z"/>
<path style="fill:#676767; stroke:none;" d="M875 321L876 322L875 321z"/>
<path style="fill:#767676; stroke:none;" d="M1299 321L1300 322L1299 321z"/>
<path style="fill:#646464; stroke:none;" d="M540 322L541 323L540 322z"/>
<path style="fill:#7b7b7b; stroke:none;" d="M1488 322L1489 323L1488 322z"/>
<path style="fill:#6d6d6d; stroke:none;" d="M117 323L118 324L117 323z"/>
<path style="fill:#616161; stroke:none;" d="M539 323L540 324L539 323z"/>
<path style="fill:#818181; stroke:none;" d="M1380 323L1381 324L1380 323z"/>
<path style="fill:#5f5f5f; stroke:none;" d="M538 324L539 325L538 324z"/>
<path style="fill:#616161; stroke:none;" d="M537 325L538 326L537 325z"/>
<path style="fill:#a5a5a5; stroke:none;" d="M1054 325L1055 326L1054 325z"/>
<path style="fill:#595959; stroke:none;" d="M126 326L127 327L126 326z"/>
<path style="fill:#5c5c5c; stroke:none;" d="M536 326L537 327L536 326z"/>
<path style="fill:#a6a6a6; stroke:none;" d="M877 326L878 327L877 326z"/>
<path style="fill:#676767; stroke:none;" d="M1564 326L1565 327L1564 326z"/>
<path style="fill:#959595; stroke:none;" d="M129 327L130 328L129 327z"/>
<path style="fill:#5e5e5e; stroke:none;" d="M535 327L536 328L535 327z"/>
<path style="fill:#848484; stroke:none;" d="M1485 327L1486 328L1485 327z"/>
<path style="fill:#808080; stroke:none;" d="M241 328L242 329L241 328z"/>
<path style="fill:#585858; stroke:none;" d="M534 328L535 329L534 328z"/>
<path style="fill:#808080; stroke:none;" d="M1053 328L1054 329L1053 328z"/>
<path style="fill:#696969; stroke:none;" d="M1383 328L1384 329L1383 328z"/>
<path style="fill:#989898; stroke:none;" d="M1563 328L1564 329L1563 328z"/>
<path style="fill:#757575; stroke:none;" d="M348 329L349 330L348 329z"/>
<path style="fill:#d4d4d4; stroke:none;" d="M437 329L437 410L438 410L438 354L437 329z"/>
<path style="fill:#575757; stroke:none;" d="M533 329L534 330L533 329z"/>
<path style="fill:#787878; stroke:none;" d="M878 329L879 330L878 329z"/>
<path style="fill:#7c7c7c; stroke:none;" d="M63 330L64 331L63 330z"/>
<path style="fill:#8f8f8f; stroke:none;" d="M139 330L140 331L139 330z"/>
<path style="fill:#858585; stroke:none;" d="M1304 330L1305 331L1304 330z"/>
<path style="fill:#868686; stroke:none;" d="M143 331L144 332L143 331z"/>
<path style="fill:#5b5b5b; stroke:none;" d="M531 331L532 332L531 331z"/>
<path style="fill:#9f9f9f; stroke:none;" d="M1385 331L1386 332L1385 331z"/>
<path style="fill:#747474; stroke:none;" d="M147 332L148 333L147 332z"/>
<path style="fill:#6f6f6f; stroke:none;" d="M233 332L234 333L233 332z"/>
<path style="fill:#898989; stroke:none;" d="M1482 332L1483 333L1482 332z"/>
<path style="fill:#acacac; stroke:none;" d="M155.667 334.333L156.333 334.667L155.667 334.333z"/>
<path style="fill:#595959; stroke:none;" d="M222 335L223 336L222 335z"/>
<path style="fill:#a0a0a0; stroke:none;" d="M346 335L347 336L346 335z"/>
<path style="fill:#757575; stroke:none;" d="M1559 335L1560 336L1559 335z"/>
<path style="fill:#616161; stroke:none;" d="M170 336L171 337L170 336z"/>
<path style="fill:#a5a5a5; stroke:none;" d="M216.667 336.333L217.333 336.667L216.667 336.333z"/>
<path style="fill:#8e8e8e; stroke:none;" d="M1050 336L1051 337L1050 336z"/>
<path style="fill:#8d8d8d; stroke:none;" d="M1388 336L1389 337L1388 336z"/>
<path style="fill:#b3b3b3; stroke:none;" d="M178 337L178 338L181 338L178 337z"/>
<path style="fill:#5a5a5a; stroke:none;" d="M181.667 337.333L182.333 337.667L181.667 337.333z"/>
<path style="fill:#858585; stroke:none;" d="M206.667 337.333L207.333 337.667L206.667 337.333z"/>
<path style="fill:#a6a6a6; stroke:none;" d="M702 337L702 410L703 410L703 360L702 337z"/>
<path style="fill:#8a8a8a; stroke:none;" d="M881 337L882 338L881 337z"/>
<path style="fill:#646464; stroke:none;" d="M1308 337L1309 338L1308 337z"/>
<path style="fill:#909090; stroke:none;" d="M1479 337L1480 338L1479 337z"/>
<path style="fill:#8a8a8a; stroke:none;" d="M345 338L346 339L345 338z"/>
<path style="fill:#797979; stroke:none;" d="M59 339L60 340L59 339z"/>
<path style="fill:#5f5f5f; stroke:none;" d="M1049 339L1050 340L1049 339z"/>
<path style="fill:#919191; stroke:none;" d="M1309 339L1310 340L1309 339z"/>
<path style="fill:#747474; stroke:none;" d="M1391 341L1392 342L1391 341z"/>
<path style="fill:#9a9a9a; stroke:none;" d="M1476 342L1477 343L1476 342z"/>
<path style="fill:#5a5a5a; stroke:none;" d="M343 343L344 344L343 343z"/>
<path style="fill:#999999; stroke:none;" d="M1047 344L1048 345L1047 344z"/>
<path style="fill:#a8a8a8; stroke:none;" d="M1393 344L1394 345L1393 344z"/>
<path style="fill:#5a5a5a; stroke:none;" d="M1475 344L1476 345L1475 344z"/>
<path style="fill:#828282; stroke:none;" d="M1554 344L1555 345L1554 344z"/>
<path style="fill:#888888; stroke:none;" d="M342 345L343 346L342 345z"/>
<path style="fill:#969696; stroke:none;" d="M884 345L885 346L884 345z"/>
<path style="fill:#747474; stroke:none;" d="M1313 346L1314 347L1313 346z"/>
<path style="fill:#5b5b5b; stroke:none;" d="M1394 346L1395 347L1394 346z"/>
<path style="fill:#959595; stroke:none;" d="M341 347L342 348L341 347z"/>
<path style="fill:#6e6e6e; stroke:none;" d="M1046 347L1047 348L1046 347z"/>
<path style="fill:#a0a0a0; stroke:none;" d="M1473 347L1474 348L1473 347z"/>
<path style="fill:#797979; stroke:none;" d="M55 348L56 349L55 348z"/>
<path style="fill:#646464; stroke:none;" d="M885 348L886 349L885 348z"/>
<path style="fill:#7c7c7c; stroke:none;" d="M340 349L341 350L340 349z"/>
<path style="fill:#919191; stroke:none;" d="M1396 349L1397 350L1396 349z"/>
<path style="fill:#636363; stroke:none;" d="M1472 349L1473 350L1472 349z"/>
<path style="fill:#626262; stroke:none;" d="M339 351L340 352L339 351z"/>
<path style="fill:#a5a5a5; stroke:none;" d="M1044 352L1045 353L1044 352z"/>
<path style="fill:#a9a9a9; stroke:none;" d="M1470 352L1471 353L1470 352z"/>
<path style="fill:#a8a8a8; stroke:none;" d="M887 353L888 354L887 353z"/>
<path style="fill:#bebebe; stroke:none;" d="M1549 353L1549 388L1550 388L1549 353z"/>
<path style="fill:#838383; stroke:none;" d="M1399 354L1400 355L1399 354z"/>
<path style="fill:#676767; stroke:none;" d="M1469 354L1470 355L1469 354z"/>
<path style="fill:#818181; stroke:none;" d="M1043 355L1044 356L1043 355z"/>
<path style="fill:#878787; stroke:none;" d="M1318 355L1319 356L1318 355z"/>
<path style="fill:#717171; stroke:none;" d="M336 356L337 357L336 356z"/>
<path style="fill:#757575; stroke:none;" d="M888 356L889 357L888 356z"/>
<path style="fill:#797979; stroke:none;" d="M51 357L52 358L51 357z"/>
<path style="fill:#969696; stroke:none;" d="M334 359L335 360L334 359z"/>
<path style="fill:#6d6d6d; stroke:none;" d="M1402 359L1403 360L1402 359z"/>
<path style="fill:#717171; stroke:none;" d="M1466 359L1467 360L1466 359z"/>
<path style="fill:#626262; stroke:none;" d="M332 362L333 363L332 362z"/>
<path style="fill:#a5a5a5; stroke:none;" d="M1404 362L1405 363L1404 362z"/>
<path style="fill:#a9a9a9; stroke:none;" d="M331 363L332 364L331 363z"/>
<path style="fill:#8d8d8d; stroke:none;" d="M1040 363L1041 364L1040 363z"/>
<path style="fill:#898989; stroke:none;" d="M891 364L892 365L891 364z"/>
<path style="fill:#7c7c7c; stroke:none;" d="M1463 364L1464 365L1463 364z"/>
<path style="fill:#868686; stroke:none;" d="M47 366L48 367L47 366z"/>
<path style="fill:#5d5d5d; stroke:none;" d="M1039 366L1040 367L1039 366z"/>
<path style="fill:#606060; stroke:none;" d="M328 367L329 368L328 367z"/>
<path style="fill:#8c8c8c; stroke:none;" d="M1407 367L1408 368L1407 367z"/>
<path style="fill:#797979; stroke:none;" d="M327 368L328 369L327 368z"/>
<path style="fill:#999999; stroke:none;" d="M326 369L327 370L326 369z"/>
<path style="fill:#8a8a8a; stroke:none;" d="M1460 369L1461 370L1460 369z"/>
<path style="fill:#9b9b9b; stroke:none;" d="M1037 371L1038 372L1037 371z"/>
<path style="fill:#9c9c9c; stroke:none;" d="M894 372L895 373L894 372z"/>
<path style="fill:#7d7d7d; stroke:none;" d="M1410 372L1411 373L1410 372z"/>
<path style="fill:#707070; stroke:none;" d="M1036 374L1037 375L1036 374z"/>
<path style="fill:#dddddd; stroke:none;" d="M1412 374L1412 375L1458 375C1446.06 369.99 1425 374 1412 374z"/>
<path style="fill:#949494; stroke:none;" d="M43 375L44 376L43 375z"/>
<path style="fill:#646464; stroke:none;" d="M895 375L896 376L895 375z"/>
<path style="fill:#787878; stroke:none;" d="M43 378L44 379L43 378z"/>
<path style="fill:#888888; stroke:none;" d="M316 379L317 380L316 379z"/>
<path style="fill:#a6a6a6; stroke:none;" d="M1034 379L1035 380L1034 379z"/>
<path style="fill:#868686; stroke:none;" d="M46 380L47 381L46 380z"/>
<path style="fill:#888888; stroke:none;" d="M49 382L50 383L49 382z"/>
<path style="fill:#818181; stroke:none;" d="M1033 382L1034 383L1033 382z"/>
<path style="fill:#7b7b7b; stroke:none;" d="M898 383L899 384L898 383z"/>
<path style="fill:#707070; stroke:none;" d="M310 384L311 385L310 384z"/>
<path style="fill:#6d6d6d; stroke:none;" d="M54 385L55 386L54 385z"/>
<path style="fill:#a5a5a5; stroke:none;" d="M307 386L308 387L307 386z"/>
<path style="fill:#5a5a5a; stroke:none;" d="M306 387L307 388L306 387z"/>
<path style="fill:#717171; stroke:none;" d="M1549 388L1549 400L1550 400L1549 388z"/>
<path style="fill:#757575; stroke:none;" d="M303 389L304 390L303 389z"/>
<path style="fill:#909090; stroke:none;" d="M1030 390L1031 391L1030 390z"/>
<path style="fill:#8d8d8d; stroke:none;" d="M901 391L902 392L901 391z"/>
<path style="fill:#8b8b8b; stroke:none;" d="M68 392L69 393L68 392z"/>
<path style="fill:#a5a5a5; stroke:none;" d="M298 392L299 393L298 392z"/>
<path style="fill:#707070; stroke:none;" d="M70 393L71 394L70 393z"/>
<path style="fill:#616161; stroke:none;" d="M1029 393L1030 394L1029 393z"/>
<path style="fill:#8a8a8a; stroke:none;" d="M75 395L76 396L75 395z"/>
<path style="fill:#818181; stroke:none;" d="M293 395L294 396L293 395z"/>
<path style="fill:#9a9a9a; stroke:none;" d="M291 396L292 397L291 396z"/>
<path style="fill:#a0a0a0; stroke:none;" d="M1027 398L1028 399L1027 398z"/>
<path style="fill:#9e9e9e; stroke:none;" d="M904 399L905 400L904 399z"/>
<path style="fill:#898989; stroke:none;" d="M283 400L284 401L283 400z"/>
<path style="fill:#737373; stroke:none;" d="M281 401L282 402L281 401z"/>
<path style="fill:#757575; stroke:none;" d="M1026 401L1027 402L1026 401z"/>
<path style="fill:#6c6c6c; stroke:none;" d="M905 402L906 403L905 402z"/>
<path style="fill:#979797; stroke:none;" d="M276 403L277 404L276 403z"/>
<path style="fill:#626262; stroke:none;" d="M271 405L272 406L271 405z"/>
<path style="fill:#6b6b6b; stroke:none;" d="M268 406L269 407L268 406z"/>
<path style="fill:#606060; stroke:none;" d="M265 407L266 408L265 407z"/>
<path style="fill:#bbbbbb; stroke:none;" d="M121.667 409.333L122.333 409.667L121.667 409.333z"/>
<path style="fill:#5c5c5c; stroke:none;" d="M258 409L259 410L258 409z"/>
<path style="fill:#8b8b8b; stroke:none;" d="M1023 409L1024 410L1023 409z"/>
<path style="fill:#707070; stroke:none;" d="M254 410L255 411L254 410z"/>
<path style="fill:#b6b6b6; stroke:none;" d="M131.667 411.333L132.333 411.667L131.667 411.333z"/>
<path style="fill:#bbbbbb; stroke:none;" d="M248 411L248 412L251 412L248 411z"/>
<path style="fill:#b4b4b4; stroke:none;" d="M243 412L243 413L246 413L243 412z"/>
<path style="fill:#707070; stroke:none;" d="M240 413L241 414L240 413z"/>
<path style="fill:#969696; stroke:none;" d="M149.667 414.333L150.333 414.667L149.667 414.333z"/>
<path style="fill:#898989; stroke:none;" d="M232.667 414.333L233.333 414.667L232.667 414.333z"/>
<path style="fill:#979797; stroke:none;" d="M158.667 415.333L159.333 415.667L158.667 415.333z"/>
<path style="fill:#c6c6c6; stroke:none;" d="M222 415L222 416L225 416L222 415z"/>
<path style="fill:#5a5a5a; stroke:none;" d="M225.667 415.333L226.333 415.667L225.667 415.333z"/>
<path style="fill:#a8a8a8; stroke:none;" d="M169 416L169 417L173 417L169 416z"/>
<path style="fill:#898989; stroke:none;" d="M213 416L213 417L216 417L213 416z"/>
</svg>
