<svg width="132" height="50" viewBox="0 0 440 160" fill="none" xmlns="http://www.w3.org/2000/svg">
<path fillRule="evenodd" clipRule="evenodd" d="M67.8987 2.6653C69.3133 -0.221766 73.3504 -0.221769 74.765 2.6653L141.746 139.376C143.282 142.511 140.321 145.968 137.072 144.835L117.166 137.891C117.146 137.844 117.124 137.797 117.101 137.75L73.5634 48.8878C72.6439 47.0112 70.0198 47.0112 69.1003 48.8878L25.5624 137.75C25.5393 137.797 25.5179 137.844 25.4979 137.891L5.59178 144.835C2.34266 145.968 -0.618322 142.511 0.91726 139.376L67.8987 2.6653Z" fill="#19A2E6"/>
<path d="M46.3656 135.168C45.5521 134.338 45.3548 133.068 45.8767 132.022L68.8238 86.0273C69.8088 84.0529 72.573 84.0529 73.558 86.0272L96.5055 132.021C97.0274 133.068 96.83 134.338 96.0166 135.168L73.0691 158.583C72.0318 159.642 70.35 159.642 69.3127 158.583L46.3656 135.168Z" fill="#19A2E6"/>
<path d="M212.7 123.8C207.9 123.8 203.88 122.92 200.64 121.16C197.4 119.36 194.94 117 193.26 114.08C191.62 111.12 190.8 107.88 190.8 104.36C190.8 101.08 191.38 98.2 192.54 95.72C193.7 93.24 195.42 91.14 197.7 89.42C199.98 87.66 202.78 86.24 206.1 85.16C208.98 84.32 212.24 83.58 215.88 82.94C219.52 82.3 223.34 81.7 227.34 81.14C231.38 80.58 235.38 80.02 239.34 79.46L234.78 81.98C234.86 76.9 233.78 73.14 231.54 70.7C229.34 68.22 225.54 66.98 220.14 66.98C216.74 66.98 213.62 67.78 210.78 69.38C207.94 70.94 205.96 73.54 204.84 77.18L193.14 73.58C194.74 68.02 197.78 63.6 202.26 60.32C206.78 57.04 212.78 55.4 220.26 55.4C226.06 55.4 231.1 56.4 235.38 58.4C239.7 60.36 242.86 63.48 244.86 67.76C245.9 69.88 246.54 72.12 246.78 74.48C247.02 76.84 247.14 79.38 247.14 82.1V122H236.04V107.18L238.2 109.1C235.52 114.06 232.1 117.76 227.94 120.2C223.82 122.6 218.74 123.8 212.7 123.8ZM214.92 113.54C218.48 113.54 221.54 112.92 224.1 111.68C226.66 110.4 228.72 108.78 230.28 106.82C231.84 104.86 232.86 102.82 233.34 100.7C234.02 98.78 234.4 96.62 234.48 94.22C234.6 91.82 234.66 89.9 234.66 88.46L238.74 89.96C234.78 90.56 231.18 91.1 227.94 91.58C224.7 92.06 221.76 92.54 219.12 93.02C216.52 93.46 214.2 94 212.16 94.64C210.44 95.24 208.9 95.96 207.54 96.8C206.22 97.64 205.16 98.66 204.36 99.86C203.6 101.06 203.22 102.52 203.22 104.24C203.22 105.92 203.64 107.48 204.48 108.92C205.32 110.32 206.6 111.44 208.32 112.28C210.04 113.12 212.24 113.54 214.92 113.54ZM262.72 122V57.2H273.88V72.92L272.32 70.88C273.12 68.8 274.16 66.9 275.44 65.18C276.72 63.42 278.2 61.98 279.88 60.86C281.52 59.66 283.34 58.74 285.34 58.1C287.38 57.42 289.46 57.02 291.58 56.9C293.7 56.74 295.74 56.84 297.7 57.2V68.96C295.58 68.4 293.22 68.24 290.62 68.48C288.06 68.72 285.7 69.54 283.54 70.94C281.5 72.26 279.88 73.86 278.68 75.74C277.52 77.62 276.68 79.72 276.16 82.04C275.64 84.32 275.38 86.74 275.38 89.3V122H262.72ZM333.483 152.6C330.003 152.6 326.623 152.06 323.343 150.98C320.103 149.9 317.143 148.3 314.463 146.18C311.783 144.1 309.563 141.52 307.803 138.44L319.383 132.56C320.783 135.32 322.783 137.34 325.383 138.62C327.983 139.9 330.723 140.54 333.603 140.54C337.163 140.54 340.203 139.9 342.723 138.62C345.243 137.38 347.143 135.5 348.423 132.98C349.743 130.46 350.383 127.34 350.343 123.62V105.5H351.843V57.2H362.943V123.74C362.943 125.46 362.883 127.1 362.763 128.66C362.643 130.22 362.423 131.78 362.103 133.34C361.183 137.7 359.423 141.3 356.823 144.14C354.263 146.98 350.983 149.1 346.983 150.5C343.023 151.9 338.523 152.6 333.483 152.6ZM332.523 123.8C326.483 123.8 321.263 122.3 316.863 119.3C312.503 116.3 309.123 112.22 306.723 107.06C304.363 101.86 303.183 96.02 303.183 89.54C303.183 83.02 304.383 77.2 306.783 72.08C309.183 66.92 312.583 62.86 316.983 59.9C321.423 56.9 326.683 55.4 332.763 55.4C338.883 55.4 344.023 56.9 348.183 59.9C352.383 62.86 355.543 66.92 357.663 72.08C359.823 77.24 360.903 83.06 360.903 89.54C360.903 96.02 359.823 101.84 357.663 107C355.503 112.16 352.323 116.26 348.123 119.3C343.923 122.3 338.723 123.8 332.523 123.8ZM334.263 112.46C338.383 112.46 341.743 111.48 344.343 109.52C346.943 107.56 348.843 104.86 350.043 101.42C351.243 97.98 351.843 94.02 351.843 89.54C351.843 85.06 351.223 81.1 349.983 77.66C348.783 74.22 346.903 71.54 344.343 69.62C341.823 67.7 338.603 66.74 334.683 66.74C330.523 66.74 327.103 67.76 324.423 69.8C321.743 71.84 319.743 74.58 318.423 78.02C317.143 81.46 316.503 85.3 316.503 89.54C316.503 93.82 317.143 97.7 318.423 101.18C319.743 104.62 321.703 107.36 324.303 109.4C326.943 111.44 330.263 112.46 334.263 112.46ZM407.931 123.8C401.451 123.8 395.831 122.34 391.071 119.42C386.311 116.5 382.631 112.48 380.031 107.36C377.471 102.2 376.191 96.26 376.191 89.54C376.191 82.78 377.511 76.84 380.151 71.72C382.791 66.56 386.491 62.56 391.251 59.72C396.011 56.84 401.571 55.4 407.931 55.4C414.411 55.4 420.031 56.86 424.791 59.78C429.551 62.7 433.231 66.72 435.831 71.84C438.431 76.96 439.731 82.86 439.731 89.54C439.731 96.3 438.411 102.26 435.771 107.42C433.171 112.54 429.491 116.56 424.731 119.48C419.971 122.36 414.371 123.8 407.931 123.8ZM407.931 111.98C414.131 111.98 418.751 109.9 421.791 105.74C424.871 101.54 426.411 96.14 426.411 89.54C426.411 82.78 424.851 77.38 421.731 73.34C418.651 69.26 414.051 67.22 407.931 67.22C403.731 67.22 400.271 68.18 397.551 70.1C394.831 71.98 392.811 74.6 391.491 77.96C390.171 81.28 389.511 85.14 389.511 89.54C389.511 96.34 391.071 101.78 394.191 105.86C397.311 109.94 401.891 111.98 407.931 111.98Z" fill="#2B303B"/>
</svg>
