<svg width="211" height="50" viewBox="0 0 211 39" fill="none" xmlns="http://www.w3.org/2000/svg">
<path d="M25.1361 17.4329L27.4104 15.7802C28.5636 14.9471 29.25 13.6022 29.25 12.1895V2.97492C29.25 1.33577 27.9001 0 26.2435 0H21.8689V6.64263H19.1324V3.1651L14.625 1.38105L10.1176 3.1651V8.11877H7.38114V0H3.00645C1.34993 0 0 1.33577 0 2.97492V12.194C0 13.6068 0.686407 14.9471 1.83957 15.7847L4.11843 17.4375C4.60807 17.7907 4.89635 18.3612 4.89635 18.9589V26.0453C4.89635 27.3946 4.30605 28.6715 3.27644 29.5545L1.73889 30.8722C0.631494 31.8185 0 33.1951 0 34.6395V39H29.25V34.6395C29.25 33.1905 28.6139 31.8185 27.5111 30.8722L25.9736 29.5545C24.944 28.6715 24.3536 27.3946 24.3536 26.0453V18.9544C24.3582 18.3567 24.6465 17.7861 25.1361 17.4329ZM24.3491 31.411L25.8866 32.7287C26.4449 33.2086 26.7698 33.906 26.7698 34.6395V36.5367H2.49394V34.6395C2.49394 33.906 2.81426 33.2086 3.37711 32.7287L4.91466 31.411C5.60564 30.8178 6.16391 30.1115 6.57576 29.3281H17.9655C18.1302 29.3281 18.2904 29.2511 18.3957 29.1243L18.9448 28.4451C19.1049 28.2459 19.1049 27.9652 18.9448 27.7659L18.3957 27.0867C18.2904 26.9599 18.1348 26.883 17.9655 26.883H7.33081C7.36284 26.6068 7.38114 26.3215 7.38114 26.0408V18.9544C7.38114 17.5733 6.70846 16.2647 5.58733 15.4451L3.30847 13.7924C2.79138 13.4166 2.48478 12.8189 2.48478 12.185V2.97492C2.48478 2.68965 2.71816 2.45873 3.00645 2.45873H4.89635V10.5775H12.6024V4.82689L14.625 4.02543L16.6476 4.82689V9.10136H24.3536V2.45873H26.2435C26.5318 2.45873 26.7652 2.68965 26.7652 2.97492V12.194C26.7652 12.8279 26.4586 13.4256 25.9415 13.8015L23.6627 15.4542C22.537 16.2692 21.8689 17.5824 21.8689 18.9589V26.0453C21.8689 28.1055 22.7749 30.0616 24.3491 31.411Z" fill="url(#paint0_linear_678_2425)"/>
<path d="M49.4675 35.4326H46.5757C46.0531 35.4326 45.7964 35.1713 45.7964 34.6533V3.95114C45.7964 3.43313 46.0576 3.17188 46.5757 3.17188H49.4675C49.9855 3.17188 50.2468 3.43313 50.2468 3.95114V34.6533C50.2513 35.1758 49.99 35.4326 49.4675 35.4326ZM59.107 12.0276H62.4132C62.688 12.0276 62.8772 12.1132 62.9853 12.2798C63.0934 12.4465 63.0528 12.6717 62.8727 12.9465L56.3998 23.2256V23.4103L63.3772 34.5182C63.5303 34.7614 63.5528 34.9776 63.4447 35.1623C63.3366 35.347 63.1159 35.4371 62.7781 35.4371H59.7961C59.0934 35.4371 58.5709 35.1758 58.2376 34.6578L51.7648 24.0499C51.5485 23.6535 51.5485 23.2391 51.7648 22.8112L57.7782 12.7618C58.0529 12.2708 58.4944 12.0276 59.107 12.0276ZM75.1698 35.4326H73.3815C71.1158 35.4326 69.3636 34.8065 68.1248 33.5497C66.8861 32.2975 66.2645 30.5498 66.2645 28.3156V19.1401C66.2645 16.8743 66.8861 15.1221 68.1248 13.8834C69.3636 12.6447 71.1158 12.0231 73.3815 12.0231H83.6606C84.2101 12.0231 84.4849 12.2843 84.4849 12.8023V34.6488C84.4849 35.1713 84.2101 35.4281 83.6606 35.4281H80.7688C80.2463 35.4281 79.9895 35.1668 79.9895 34.6488V32.9957H79.8048C79.0706 34.6218 77.5256 35.4326 75.1698 35.4326ZM79.9895 27.6309V16.3879C79.9895 16.0816 79.8228 15.9284 79.485 15.9284H74.0256C71.823 15.9284 70.7194 17.059 70.7194 19.3248V28.1354C70.7194 30.4011 71.823 31.5317 74.0256 31.5317H76.2283C78.7328 31.5317 79.9895 30.2345 79.9895 27.6309ZM93.8947 35.4326H91.0028C90.4803 35.4326 90.2236 35.1713 90.2236 34.6533V12.8068C90.2236 12.2888 90.4848 12.0276 91.0028 12.0276H93.8947C94.4127 12.0276 94.6739 12.2888 94.6739 12.8068V14.46H94.8586C95.5928 12.8384 97.1378 12.0276 99.4937 12.0276H101.512C103.746 12.0276 105.458 12.6402 106.651 13.8654C107.845 15.0906 108.439 16.8473 108.439 19.1446V34.6578C108.439 35.1803 108.165 35.4371 107.615 35.4371H104.723C104.201 35.4371 103.944 35.1758 103.944 34.6578V19.3248C103.944 17.059 102.827 15.9284 100.593 15.9284H98.4351C95.9261 15.9284 94.6739 17.2302 94.6739 19.8292V34.6533C94.6739 35.1758 94.4127 35.4326 93.8947 35.4326ZM122.394 35.4326H120.606C118.34 35.4326 116.588 34.8065 115.349 33.5497C114.111 32.2975 113.489 30.5498 113.489 28.3156V19.1401C113.489 16.8743 114.111 15.1221 115.349 13.8834C116.588 12.6447 118.34 12.0231 120.606 12.0231H130.885C131.435 12.0231 131.709 12.2843 131.709 12.8023V34.6488C131.709 35.1713 131.435 35.4281 130.885 35.4281H127.993C127.471 35.4281 127.214 35.1668 127.214 34.6488V32.9957H127.029C126.295 34.6218 124.75 35.4326 122.394 35.4326ZM127.214 27.6309V16.3879C127.214 16.0816 127.047 15.9284 126.709 15.9284H121.25C119.047 15.9284 117.944 17.059 117.944 19.3248V28.1354C117.944 30.4011 119.047 31.5317 121.25 31.5317H123.453C125.957 31.5317 127.214 30.2345 127.214 27.6309Z" fill="url(#paint1_linear_678_2425)"/>
<path d="M141.349 35.4326H138.457C137.934 35.4326 137.678 35.1713 137.678 34.6533V3.95114C137.678 3.43313 137.939 3.17188 138.457 3.17188H141.349C141.867 3.17188 142.128 3.43313 142.128 3.95114V34.6533C142.128 35.1758 141.867 35.4326 141.349 35.4326Z" fill="white"/>
<path d="M156.587 35.4329H154.799C152.533 35.4329 150.781 34.8068 149.542 33.5501C148.304 32.2979 147.682 30.5501 147.682 28.3159V19.1404C147.682 16.8747 148.304 15.1225 149.542 13.8838C150.781 12.645 152.533 12.0234 154.799 12.0234H165.078C165.628 12.0234 165.903 12.2847 165.903 12.8027V34.6492C165.903 35.1717 165.628 35.4284 165.078 35.4284H162.186C161.664 35.4284 161.407 35.1672 161.407 34.6492V32.996H161.222C160.488 34.6221 158.939 35.4329 156.587 35.4329ZM161.403 27.6313V16.3882C161.403 16.0819 161.236 15.9288 160.898 15.9288H155.439C153.236 15.9288 152.133 17.0594 152.133 19.3251V28.1358C152.133 30.4015 153.236 31.5321 155.439 31.5321H157.641C160.15 31.5321 161.403 30.2348 161.403 27.6313Z" fill="white"/>
<path d="M171.636 34.6533V3.95114C171.636 3.43313 171.897 3.17188 172.415 3.17188H175.307C175.825 3.17188 176.087 3.43313 176.087 3.95114V14.3248H176.271C177.037 12.6717 178.582 11.8474 180.906 11.8474H182.924C185.19 11.8474 186.947 12.469 188.204 13.7077C189.456 14.9465 190.086 16.6852 190.086 18.9149V28.3246C190.086 30.5588 189.46 32.302 188.204 33.5587C186.947 34.8155 185.19 35.4416 182.924 35.4416H172.415C171.897 35.4326 171.636 35.1758 171.636 34.6533ZM176.596 31.5318H182.285C184.487 31.5318 185.591 30.4011 185.591 28.1354V19.1401C185.591 16.8743 184.487 15.7437 182.285 15.7437H179.852C177.343 15.7437 176.091 17.0275 176.091 19.5995V31.0273C176.091 31.3651 176.258 31.5318 176.596 31.5318Z" fill="white"/>
<path d="M203.762 35.4327H195.321C194.798 35.4327 194.541 35.1715 194.541 34.6535V32.4058C194.541 31.9148 194.803 31.6715 195.321 31.6715H203.032C205.019 31.6715 206.014 30.9824 206.014 29.604V29.0545C206.014 27.8293 205.294 26.8968 203.857 26.2572L198.852 23.8699C197.294 23.1356 196.159 22.3248 195.456 21.4375C194.753 20.5501 194.402 19.388 194.402 17.951C194.402 14.0052 196.591 12.0322 200.965 12.0322H208.582C209.073 12.0322 209.316 12.2935 209.316 12.8115V15.0592C209.316 15.5817 209.073 15.8385 208.582 15.8385H201.879C200.96 15.8385 200.258 16.0006 199.767 16.3204C199.276 16.6403 199.032 17.0637 199.032 17.5817V18.0862C199.032 19.0636 199.812 19.924 201.375 20.6582L206.424 23.2302C208.014 23.9329 209.109 24.7662 209.703 25.7302C210.298 26.6941 210.6 27.9419 210.6 29.4689C210.604 33.4463 208.321 35.4327 203.762 35.4327Z" fill="white"/>
<defs>
<linearGradient id="paint0_linear_678_2425" x1="14.6272" y1="38.9986" x2="14.6272" y2="-0.00217353" gradientUnits="userSpaceOnUse">
<stop stop-color="#00FFFF"/>
<stop offset="1" stop-color="#00F9A9"/>
</linearGradient>
<linearGradient id="paint1_linear_678_2425" x1="88.7543" y1="35.4336" x2="88.7543" y2="3.16967" gradientUnits="userSpaceOnUse">
<stop stop-color="#00FFFF"/>
<stop offset="1" stop-color="#00F9A9"/>
</linearGradient>
</defs>
</svg>
